<?xml version="1.0" encoding="UTF-8" standalone="no"?>
<svg
   xmlns:dc="http://purl.org/dc/elements/1.1/"
   xmlns:cc="http://creativecommons.org/ns#"
   xmlns:rdf="http://www.w3.org/1999/02/22-rdf-syntax-ns#"
   xmlns:svg="http://www.w3.org/2000/svg"
   xmlns="http://www.w3.org/2000/svg"
   xmlns:xlink="http://www.w3.org/1999/xlink"
   xmlns:sodipodi="http://sodipodi.sourceforge.net/DTD/sodipodi-0.dtd"
   xmlns:inkscape="http://www.inkscape.org/namespaces/inkscape"
   version="1.1"
   id="Layer_1"
   x="0px"
   y="0px"
   width="327px"
   height="146px"
   viewBox="0 0 327 146"
   enable-background="new 0 0 327 146"
   xml:space="preserve"
   inkscape:version="0.91 r13725"
   sodipodi:docname="boredpass.svg"><metadata
     id="metadata37"><rdf:RDF><cc:Work
         rdf:about=""><dc:format>image/svg+xml</dc:format><dc:type
           rdf:resource="http://purl.org/dc/dcmitype/StillImage" /></cc:Work></rdf:RDF></metadata><defs
     id="defs35" /><sodipodi:namedview
     pagecolor="#ffffff"
     bordercolor="#666666"
     borderopacity="1"
     objecttolerance="10"
     gridtolerance="10"
     guidetolerance="10"
     inkscape:pageopacity="0"
     inkscape:pageshadow="2"
     inkscape:window-width="1920"
     inkscape:window-height="1017"
     id="namedview33"
     showgrid="false"
     inkscape:zoom="2.4910918"
     inkscape:cx="182.54225"
     inkscape:cy="21.334824"
     inkscape:window-x="-8"
     inkscape:window-y="-8"
     inkscape:window-maximized="1"
     inkscape:current-layer="g3" /><g
     id="g3"><defs
       id="defs5"><rect
         id="SVGID_1_"
         x="-61"
         y="-72"
         width="440"
         height="303" /></defs><clipPath
       id="SVGID_2_"><use
         xlink:href="#SVGID_1_"
         overflow="visible"
         id="use9" /></clipPath><path
       clip-path="url(#SVGID_2_)"
       fill="#292C33"
       d="M132.059,54.325c0.38-2.14,0.579-4.335,0.579-6.595   c0-8.306-2.637-14.971-7.903-20c-5.268-5.022-12.262-7.54-20.969-7.54c-4.961,0-9.561,0.915-13.795,2.748   c-4.237,1.829-7.881,4.442-10.932,7.84c-2.761,3.154-4.879,6.67-6.352,10.543c-1.472,3.875-2.208,7.908-2.208,12.098   c0,0.309,0.03,0.602,0.035,0.906H132.059z"
       id="path11" /><path
       clip-path="url(#SVGID_2_)"
       fill="#25B9C5"
       d="M55.128,43.296c2.818-3.192,4.235-7.186,4.235-11.979   c0-2.719-0.542-5.219-1.61-7.495c-1.065-2.278-2.642-4.233-4.71-5.864c-2.079-1.634-4.578-2.785-7.501-3.467   c-2.923-0.68-7.68-1.02-14.271-1.02H15.817L5.975,88.114h17.233c4.079,0,7.57-0.084,10.457-0.255   c2.886-0.17,5.198-0.407,6.929-0.715c3.539-0.714,6.448-1.814,8.723-3.313c3.123-2.105,5.496-4.716,7.111-7.823   c1.617-3.112,2.422-6.586,2.422-10.431c0-4.418-1.34-8.081-4.032-10.987c-2.68-2.908-6.419-4.714-11.215-5.432   C48.465,48.446,52.306,46.492,55.128,43.296 M39.581,73.354c-2.486,1.616-6.989,2.422-13.519,2.422h-3.061l2.656-19.732h2.805   c5.744,0,9.651,0.705,11.73,2.115c2.073,1.411,3.11,3.732,3.11,6.961C43.302,68.995,42.061,71.739,39.581,73.354 M40.903,41.513   c-2.211,1.498-6.221,2.244-12.034,2.244h-1.685l2.397-18.1h1.379c5.305,0,8.841,0.604,10.605,1.81   c1.771,1.204,2.654,3.359,2.654,6.45C44.219,37.487,43.115,40.018,40.903,41.513"
       id="path13" /><path
       clip-path="url(#SVGID_2_)"
       fill="#25B9C5"
       d="M131.232,21.341c-6.751-6.435-15.696-9.656-26.845-9.656   c-6.357,0-12.247,1.174-17.668,3.518c-5.422,2.342-10.087,5.691-13.992,10.036c-3.537,4.042-6.249,8.544-8.132,13.504   c-1.889,4.958-2.832,10.122-2.832,15.485c0,10.839,3.381,19.519,10.147,26.04c6.761,6.522,15.702,9.783,26.82,9.783   c6.558,0,12.597-1.231,18.123-3.695c5.521-2.46,10.342-6.071,14.454-10.825c3.266-3.772,5.751-8.11,7.475-13.021   c1.71-4.905,2.571-10.093,2.571-15.563C141.353,36.311,137.978,27.777,131.232,21.341 M103.518,25.249   c6.666,0,11.967,2.029,15.909,6.086c3.94,4.057,5.914,9.537,5.914,16.426c0,1.517-0.087,2.993-0.264,4.421H77.754   c0.314-7.488,2.755-13.762,7.337-18.808C90.006,27.957,96.144,25.249,103.518,25.249 M99.542,76.489   c-6.63,0-11.93-2.036-15.906-6.111c-1.807-1.864-3.183-3.96-4.131-6.287h9.547c2.387,3.309,6.269,5.46,10.661,5.46   c4.391,0,8.278-2.151,10.666-5.46h10.631c-0.891,1.446-1.917,2.821-3.087,4.123C112.98,73.73,106.85,76.489,99.542,76.489"
       id="path15" /><path
       clip-path="url(#SVGID_2_)"
       fill="#25B9C5"
       d="M192.699,47.122c3.196-3.704,4.798-8.414,4.798-14.124   c0-3.057-0.634-5.887-1.886-8.488c-1.259-2.601-3.1-4.784-5.51-6.552c-2.209-1.634-4.716-2.785-7.517-3.467   c-2.807-0.679-7.509-1.02-14.103-1.02h-15.547l-9.844,74.644h15.704l4.492-34.263l15.344,34.263h17.129l-16.925-33.397   C184.883,53.359,189.506,50.829,192.699,47.122 M178.651,43.324c-2.123,1.613-6.144,2.422-12.056,2.422H164.3l2.598-19.886h1.787   c5.204,0,8.696,0.681,10.48,2.041c1.786,1.359,2.679,3.722,2.679,7.087C181.844,38.931,180.774,41.709,178.651,43.324"
       id="path17" /><polygon
       clip-path="url(#SVGID_2_)"
       fill="#25B9C5"
       points="251.272,26.625 252.905,13.471 208.545,13.471 198.704,88.115    243.112,88.115 244.896,74.959 215.936,74.959 218.387,56.25 247.29,56.25 248.971,43.402 220.117,43.402 222.314,26.625  "
       id="polygon19" /><path
       clip-path="url(#SVGID_2_)"
       fill="#25B9C5"
       d="M316.509,29.352c-2.821-5.455-6.816-9.541-11.985-12.259   c-2.514-1.328-5.589-2.245-9.226-2.757c-1.87-0.307-4.368-0.525-7.495-0.659c-3.128-0.14-6.885-0.206-11.267-0.206h-15.653   l-9.841,74.643h13.712h5.968c9.925,0,17.277-0.562,22.05-1.684c4.776-1.119,8.93-2.957,12.465-5.506   c5.339-3.838,9.26-8.353,11.754-13.538c2.497-5.181,3.748-11.429,3.748-18.735C320.739,41.24,319.331,34.808,316.509,29.352    M302.895,59.945c-1.225,3.583-2.977,6.57-5.253,8.945c-2.106,2.213-4.732,3.774-7.879,4.693   c-3.139,0.918-7.418,1.379-12.819,1.379l-7.648-0.204h-0.918l6.271-47.725h10.046c7.167,0,12.302,1.622,15.395,4.868   c3.092,3.247,4.642,8.545,4.642,15.883C304.732,52.305,304.117,56.359,302.895,59.945"
       id="path21" /><path
       clip-path="url(#SVGID_2_)"
       fill="#FFFFFF"
       d="M71.474,131.106v10.282h-7.137v-30.762H75.19c2.167,0,4.028,0.257,5.584,0.771   c1.555,0.514,2.836,1.221,3.843,2.122c1.005,0.901,1.749,1.964,2.227,3.188c0.479,1.225,0.718,2.548,0.718,3.969   c0,1.534-0.246,2.942-0.739,4.223c-0.493,1.281-1.245,2.379-2.259,3.294c-1.014,0.915-2.298,1.629-3.854,2.142   c-1.554,0.514-3.395,0.771-5.52,0.771H71.474z M71.474,125.722h3.716c1.857,0,3.194-0.443,4.012-1.33   c0.815-0.887,1.223-2.125,1.223-3.716c0-0.703-0.105-1.344-0.316-1.921c-0.211-0.577-0.531-1.073-0.96-1.488   c-0.43-0.415-0.972-0.735-1.626-0.961c-0.654-0.225-1.433-0.338-2.333-0.338h-3.716V125.722z"
       id="path23" /><path
       clip-path="url(#SVGID_2_)"
       fill="#FFFFFF"
       d="M138.19,110.626h-7.305l-11.908,30.762h5.574c0.591,0,1.091-0.158,1.499-0.475   c0.409-0.317,0.683-0.673,0.824-1.066l6.292-18.601c0.211-0.535,0.435-1.168,0.674-1.9c0.24-0.732,0.472-1.528,0.698-2.386   c0.239,0.845,0.481,1.63,0.728,2.354c0.246,0.725,0.461,1.355,0.644,1.89l6.292,18.643c0.154,0.45,0.432,0.82,0.834,1.108   c0.401,0.288,0.911,0.433,1.53,0.433h5.532L138.19,110.626z"
       id="path25" /><path
       clip-path="url(#SVGID_2_)"
       fill="#FFFFFF"
       d="M203.513,116.876c-0.211,0.338-0.433,0.591-0.665,0.76   c-0.231,0.169-0.531,0.253-0.897,0.253c-0.324,0-0.672-0.102-1.045-0.306c-0.373-0.204-0.795-0.433-1.267-0.686   c-0.472-0.253-1.01-0.482-1.615-0.686c-0.606-0.204-1.295-0.307-2.069-0.307c-1.338,0-2.333,0.285-2.988,0.856   c-0.654,0.569-0.981,1.341-0.981,2.311c0,0.619,0.197,1.133,0.591,1.541c0.394,0.41,0.912,0.761,1.552,1.056   c0.64,0.296,1.372,0.567,2.196,0.813c0.823,0.247,1.664,0.521,2.523,0.824c0.858,0.302,1.699,0.658,2.522,1.066   c0.824,0.408,1.556,0.929,2.197,1.562c0.639,0.633,1.157,1.404,1.551,2.312c0.394,0.907,0.591,2.002,0.591,3.283   c0,1.422-0.246,2.752-0.739,3.991c-0.492,1.238-1.207,2.319-2.143,3.24c-0.936,0.923-2.09,1.647-3.462,2.175   c-1.373,0.528-2.932,0.792-4.677,0.792c-0.957,0-1.932-0.099-2.924-0.296c-0.992-0.197-1.953-0.475-2.882-0.834   c-0.929-0.359-1.802-0.784-2.618-1.278c-0.816-0.492-1.527-1.041-2.132-1.646l2.111-3.336c0.155-0.253,0.373-0.457,0.655-0.612   c0.281-0.155,0.584-0.233,0.907-0.233c0.423,0,0.849,0.134,1.277,0.402c0.43,0.267,0.915,0.563,1.457,0.886   c0.542,0.325,1.165,0.619,1.869,0.887c0.704,0.268,1.534,0.401,2.492,0.401c1.295,0,2.301-0.285,3.018-0.855   c0.718-0.569,1.077-1.474,1.077-2.713c0-0.718-0.197-1.302-0.59-1.752c-0.395-0.45-0.913-0.823-1.553-1.119   c-0.641-0.296-1.368-0.556-2.185-0.781c-0.816-0.225-1.654-0.475-2.512-0.75c-0.859-0.275-1.697-0.613-2.513-1.013   c-0.817-0.401-1.545-0.93-2.185-1.584s-1.158-1.471-1.551-2.449c-0.395-0.978-0.592-2.185-0.592-3.62   c0-1.155,0.232-2.281,0.697-3.379c0.464-1.098,1.147-2.075,2.048-2.935c0.9-0.858,2.006-1.544,3.314-2.058   c1.31-0.514,2.809-0.771,4.497-0.771c0.944,0,1.862,0.074,2.756,0.222c0.894,0.148,1.741,0.366,2.544,0.655   c0.802,0.288,1.552,0.633,2.248,1.034c0.698,0.402,1.32,0.855,1.869,1.362L203.513,116.876z"
       id="path27" /><path
       clip-path="url(#SVGID_2_)"
       fill="#FFFFFF"
       d="M260.18,116.876c-0.211,0.338-0.433,0.591-0.665,0.76   c-0.231,0.169-0.531,0.253-0.897,0.253c-0.324,0-0.672-0.102-1.045-0.306c-0.373-0.204-0.795-0.433-1.267-0.686   c-0.472-0.253-1.01-0.482-1.615-0.686c-0.606-0.204-1.295-0.307-2.069-0.307c-1.338,0-2.333,0.285-2.988,0.856   c-0.654,0.569-0.981,1.341-0.981,2.311c0,0.619,0.197,1.133,0.591,1.541c0.394,0.41,0.912,0.761,1.552,1.056   c0.64,0.296,1.372,0.567,2.196,0.813c0.823,0.247,1.664,0.521,2.523,0.824c0.858,0.302,1.699,0.658,2.522,1.066   c0.824,0.408,1.556,0.929,2.197,1.562c0.639,0.633,1.157,1.404,1.551,2.312c0.394,0.907,0.591,2.002,0.591,3.283   c0,1.422-0.246,2.752-0.739,3.991c-0.492,1.238-1.207,2.319-2.143,3.24c-0.936,0.923-2.09,1.647-3.462,2.175   c-1.373,0.528-2.932,0.792-4.677,0.792c-0.957,0-1.932-0.099-2.924-0.296c-0.992-0.197-1.953-0.475-2.882-0.834   c-0.929-0.359-1.802-0.784-2.618-1.278c-0.816-0.492-1.527-1.041-2.132-1.646l2.111-3.336c0.155-0.253,0.373-0.457,0.655-0.612   c0.281-0.155,0.584-0.233,0.907-0.233c0.423,0,0.849,0.134,1.277,0.402c0.43,0.267,0.915,0.563,1.457,0.886   c0.542,0.325,1.165,0.619,1.87,0.887c0.703,0.268,1.533,0.401,2.491,0.401c1.295,0,2.301-0.285,3.018-0.855   c0.718-0.569,1.077-1.474,1.077-2.713c0-0.718-0.197-1.302-0.59-1.752c-0.395-0.45-0.913-0.823-1.553-1.119   c-0.641-0.296-1.368-0.556-2.185-0.781c-0.816-0.225-1.654-0.475-2.512-0.75c-0.859-0.275-1.697-0.613-2.513-1.013   c-0.817-0.401-1.545-0.93-2.185-1.584c-0.64-0.654-1.158-1.471-1.551-2.449c-0.395-0.978-0.592-2.185-0.592-3.62   c0-1.155,0.232-2.281,0.697-3.379c0.464-1.098,1.147-2.075,2.048-2.935c0.9-0.858,2.006-1.544,3.314-2.058   c1.31-0.514,2.809-0.771,4.497-0.771c0.944,0,1.862,0.074,2.756,0.222c0.894,0.148,1.741,0.366,2.544,0.655   c0.802,0.288,1.552,0.633,2.248,1.034c0.698,0.402,1.32,0.855,1.869,1.362L260.18,116.876z"
       id="path29" /><path
       clip-path="url(#SVGID_2_)"
       fill="#FFFFFF"
       d="M99.542,76.489c-6.63,0-11.93-2.036-15.906-6.111   c-1.807-1.864-3.183-3.96-4.131-6.287h9.547c2.387,3.309,6.269,5.46,10.661,5.46c4.391,0,8.278-2.151,10.666-5.46h10.631   c-0.891,1.446-1.917,2.821-3.087,4.123C112.98,73.73,106.85,76.489,99.542,76.489"
       id="path31" /></g></svg>