<?xml version="1.0" encoding="utf-8"?>
<!-- Generator: Adobe Illustrator 17.0.0, SVG Export Plug-In . SVG Version: 6.00 Build 0)  -->
<!DOCTYPE svg PUBLIC "-//W3C//DTD SVG 1.1//EN" "http://www.w3.org/Graphics/SVG/1.1/DTD/svg11.dtd">
<svg version="1.1" id="Layer_1" xmlns="http://www.w3.org/2000/svg" xmlns:xlink="http://www.w3.org/1999/xlink" x="0px" y="0px"
	 width="350px" height="350px" viewBox="0 0 350 350" enable-background="new 0 0 350 350" xml:space="preserve">
<g>
	<path fill="#25B9C5" d="M210.006,108.507c7.33,0.42,13.636-5.201,14.057-12.53c0.42-7.329-5.201-13.635-12.532-14.055
		c-7.329-0.42-13.633,5.201-14.053,12.531C197.057,101.781,202.677,108.086,210.006,108.507z"/>
	<path fill="#25B9C5" d="M123.053,158.981c6.744,0.387,12.545-4.785,12.932-11.527c0.387-6.743-4.785-12.544-11.529-12.931
		c-6.742-0.387-12.543,4.785-12.929,11.528C111.14,152.792,116.311,158.594,123.053,158.981z"/>
	<path fill="#25B9C5" d="M175,22.867C90.979,22.867,22.867,90.979,22.867,175c0,84.021,68.112,152.133,152.133,152.133
		c84.021,0,152.133-68.112,152.133-152.133C327.133,90.979,259.021,22.867,175,22.867z M190.383,94.045
		c0.645-11.242,10.315-19.863,21.555-19.219c11.241,0.645,19.864,10.315,19.219,21.557c-0.645,11.241-10.315,19.863-21.558,19.218
		C198.359,114.957,189.738,105.286,190.383,94.045z M104.999,145.676c0.593-10.343,9.49-18.274,19.831-17.681
		c10.342,0.593,18.275,9.49,17.682,19.833c-0.593,10.342-9.49,18.274-19.834,17.68C112.338,164.915,104.406,156.018,104.999,145.676
		z M140,275h-32v-61h0.018c0.376-1,1.741-2.655,3.379-2.655c1.64,0,3.003,1.655,3.379,2.655H115v54h6v-44l0,0v-1.586
		c0-1.928,1.572-3.491,3.5-3.491c1.93,0,3.5,1.563,3.5,3.491V224l0,0v44h5v-54h0.108c0.376-1,1.741-2.655,3.379-2.655
		c1.64,0,3.003,1.655,3.379,2.655H140V275z M231,212v63h-41v-63h-14.777l2.714-13.458l3.43-17.191
		c0.379-1.905,2.23-2.927,4.134-2.548c1.855,0.369,3.062,2.197,2.777,4.197h0.002l-0.005-0.163
		c-0.007,0.043-0.004-0.119-0.012-0.077L183.8,205H197v63h10v-59h-0.413c0.165-2,1.641-3.17,3.459-3.17
		c1.82,0,3.294,1.17,3.459,3.17H214v59h10v-63h12.559l-4.012-20.206l-0.258-1.255l0.011-0.01l-0.148-0.747
		c-0.379-1.904,0.857-3.757,2.763-4.136c1.905-0.379,3.756,0.857,4.134,2.762l1.092,5.52L245.35,212H231z M249.806,184.702
		c-1.883,0.421-3.748-0.763-4.169-2.644l-0.053-0.235l-0.031,0.007l-11.543-49.934c-0.714-2.578-3.884-2.895-4.245-2.895H191.46
		c-2.438,0-3.156,2.03-3.352,2.83l-0.061,0.317l-14.694,49.275l-19.484,15.349L136.642,178h-28.997c-1.934,0-2.645,1.607-3.645,2.32
		V217l0,0v0.008c0,1.928-1.572,3.491-3.5,3.491c-1.93,0-3.5-1.563-3.5-3.491V194l0,0v-14.827l0.379-0.546
		c0.784-2.619,4.122-7.626,10.266-7.626h32.069l14.912,16.275l12.652-9.961l14.025-47.149c0.668-2.866,3.575-8.165,10.155-8.165
		h38.34c3.08,0,9.342,1.843,10.997,8.176l0.03,0.208l7.833,35.17l3.791,14.958C252.871,182.393,251.687,184.281,249.806,184.702z"/>
</g>
</svg>
