<?xml version="1.0" encoding="utf-8"?>
<!-- Generator: Adobe Illustrator 17.0.0, SVG Export Plug-In . SVG Version: 6.00 Build 0)  -->
<!DOCTYPE svg PUBLIC "-//W3C//DTD SVG 1.1//EN" "http://www.w3.org/Graphics/SVG/1.1/DTD/svg11.dtd">
<svg version="1.1" id="Layer_1" xmlns="http://www.w3.org/2000/svg" xmlns:xlink="http://www.w3.org/1999/xlink" x="0px" y="0px"
	 width="350px" height="350px" viewBox="0 0 350 350" enable-background="new 0 0 350 350" xml:space="preserve">
<g>
	<path fill="#25B9C5" d="M157.454,137.212c8.599,0,15.594-6.995,15.594-15.592c0-8.598-6.995-15.593-15.594-15.593
		c-8.597,0-15.591,6.995-15.591,15.593C141.863,130.218,148.857,137.212,157.454,137.212z"/>
	<path fill="#25B9C5" d="M175,22.867C90.979,22.867,22.867,90.979,22.867,175c0,84.021,68.112,152.133,152.133,152.133
		S327.133,259.021,327.133,175C327.133,90.979,259.021,22.867,175,22.867z M157.454,98.973c12.489,0,22.649,10.16,22.649,22.648
		c0,12.488-10.16,22.647-22.649,22.647c-12.487,0-22.646-10.16-22.646-22.647C134.807,109.132,144.966,98.973,157.454,98.973z
		 M197.171,223.17c-6.143,16.586-22.157,27.729-39.85,27.729c-23.424,0-42.48-19.058-42.48-42.482
		c0-15.518,8.46-29.798,22.078-37.269c0.52-0.284,1.104-0.435,1.692-0.435c1.29,0,2.477,0.702,3.097,1.832
		c0.936,1.706,0.31,3.854-1.396,4.791c-11.359,6.229-18.416,18.139-18.416,31.081c0,19.534,15.892,35.427,35.425,35.427
		c14.755,0,28.11-9.293,33.233-23.124c0.511-1.377,1.841-2.303,3.312-2.303c0.417,0,0.828,0.074,1.223,0.22
		c0.884,0.327,1.587,0.979,1.98,1.835C197.462,221.329,197.499,222.287,197.171,223.17z M157.324,228.689
		c1.945,0,3.527,1.583,3.527,3.528s-1.582,3.527-3.527,3.527c-15.067,0-27.325-12.259-27.325-27.327
		c0-1.945,1.583-3.527,3.528-3.527s3.527,1.582,3.527,3.527C137.054,219.595,146.147,228.689,157.324,228.689z M233.022,250.413
		c-0.544,0.318-1.161,0.487-1.786,0.487c-1.248,0-2.414-0.491-3.045-1.563L202.584,206h-45.262c-1.945,0-3.322-1.932-3.322-3.877
		v-44.858c0-1.945,1.555-3.528,3.5-3.528s3.5,1.583,3.5,3.528V199h43.602c1.244,0,2.409,0.463,3.041,1.536l26.629,45.147
		C235.257,247.36,234.696,249.425,233.022,250.413z"/>
</g>
</svg>
