<?xml version="1.0" encoding="utf-8"?>
<!-- Generator: Adobe Illustrator 17.0.0, SVG Export Plug-In . SVG Version: 6.00 Build 0)  -->
<!DOCTYPE svg PUBLIC "-//W3C//DTD SVG 1.1//EN" "http://www.w3.org/Graphics/SVG/1.1/DTD/svg11.dtd">
<svg version="1.1" id="Layer_1" xmlns="http://www.w3.org/2000/svg" xmlns:xlink="http://www.w3.org/1999/xlink" x="0px" y="0px"
	 width="350px" height="350px" viewBox="0 0 350 350" enable-background="new 0 0 350 350" xml:space="preserve">
<g>
	<polygon fill="#25B9C5" points="135.167,190 121.843,190 103.189,220 116.49,220 	"/>
	<polygon fill="#25B9C5" points="75.19,264 88.49,264 100.164,245 86.845,245 	"/>
	<path fill="#25B9C5" d="M219,181.925v-8.612c0-0.642-0.71-1.313-1.352-1.313H91.694c-0.66,0-1.694,0.671-1.694,1.313v8.612
		c0,0.665,1.034,1.075,1.694,1.075h125.955C218.29,183,219,182.59,219,181.925z"/>
	<polygon fill="#25B9C5" points="174.176,190 192.848,220 206.154,220 187.495,190 	"/>
	<path fill="#25B9C5" d="M175,22.867C90.979,22.867,22.867,90.979,22.867,175c0,84.021,68.112,152.133,152.133,152.133
		S327.133,259.021,327.133,175C327.133,90.979,259.021,22.867,175,22.867z M170.747,121.55c12.943,0,23.65-9.653,25.387-22.128
		c-4.638,4.602-11.032,7.466-18.067,7.466c-2.021,0-3.671-1.65-3.671-3.671c0-2.026,1.45-3.671,3.472-3.671
		c10.115,0,18.133-8.218,18.133-18.333V81.12c-3,2.328-6.657,3.763-10.791,3.763c-2.026,0-3.571-1.65-3.571-3.671
		c0-2.021,1.695-3.671,3.721-3.671c6.068,0,11.016-4.922,11.016-10.991c0-2.026,1.663-3.671,3.684-3.671s3.677,1.646,3.677,3.671
		c0,6.068,4.926,10.991,10.994,10.991c2.026,0,3.673,1.65,3.673,3.671c0,2.021-1.516,3.671-3.542,3.671
		c-4.134,0-7.861-1.435-10.861-3.763v0.092c0,10.115,8.089,18.333,18.204,18.333c2.021,0,3.607,1.646,3.607,3.671
		c0,2.021-1.682,3.671-3.703,3.671c-7.036,0-13.445-2.865-18.084-7.466c1.737,12.476,12.436,22.128,25.379,22.128
		c2.044,0,3.667,1.627,3.667,3.671c0,2.021-1.5,3.648-3.544,3.648c-10.344,0-19.526-4.794-25.526-12.297v15.968
		c0,2.026-1.979,3.671-4,3.671s-4-1.645-4-3.671v-15.968c-6,7.503-15.108,12.297-25.453,12.297c-2.044,0-3.571-1.627-3.571-3.648
		C166.976,123.177,168.703,121.55,170.747,121.55z M255,236.925c0,4.712-3.32,8.075-8.027,8.075h-15.789l9.987,15.932
		c1.274,1.989,1.361,4.59,0.215,6.647c-1.146,2.076-3.309,3.421-5.674,3.421h-15.327c-2.218,0-4.276-1.283-5.477-3.162L200.493,245
		h-91.648l-14.41,22.838c-1.219,1.879-3.259,3.162-5.482,3.162H73.631c-2.365,0-4.547-1.227-5.679-3.303
		c-1.146-2.076-1.073-4.806,0.215-6.795L78.16,245H58.699c-4.707,0-8.699-3.363-8.699-8.075v-8.612c0-4.689,3.992-8.313,8.699-8.313
		H94.49l18.672-30H91.694c-4.689,0-8.694-3.363-8.694-8.075v-8.612c0-4.689,4.005-8.313,8.694-8.313h125.955
		c4.689,0,8.352,3.624,8.352,8.313v8.612c0,4.712-3.663,8.075-8.352,8.075H196.18l18.672,30h32.12c4.707,0,8.027,3.624,8.027,8.313
		V236.925z M307.902,166.617c-10.363,0-18.902-4.794-25.902-12.297v15.968c0,2.026-1.479,3.671-3.5,3.671
		c-2.026,0-3.5-1.645-3.5-3.671V154.32c-6,7.503-15.231,12.297-25.598,12.297c-2.021,0-3.61-1.627-3.61-3.648
		c0-2.044,1.646-3.671,3.668-3.671c12.948,0,23.678-9.653,25.415-22.128c-4.652,4.602-11.023,7.466-18.058,7.466
		c-2.021,0-3.669-1.65-3.669-3.671c0-2.026,1.574-3.671,3.595-3.671c10.115,0,18.257-8.218,18.257-18.333v-0.092
		c-3,2.328-6.779,3.763-10.913,3.763c-2.044,0-3.632-1.65-3.632-3.671s1.646-3.671,3.691-3.671c6.05,0,11-4.922,11-10.991
		c0-2.026,1.65-3.671,3.676-3.671c2.021,0,3.674,1.645,3.674,3.671c0,6.068,4.924,10.991,10.992,10.991
		c2.021,0,3.672,1.65,3.672,3.671s-1.898,3.671-3.919,3.671c-4.134,0-7.239-1.435-11.239-3.763v0.092
		c0,10.115,8.467,18.333,18.582,18.333c2.021,0,3.773,1.646,3.773,3.671c0,2.021-1.565,3.671-3.586,3.671
		c-7.04,0-13.398-2.865-18.036-7.466c1.737,12.476,12.459,22.128,25.403,22.128c2.026,0,3.555,1.627,3.555,3.671
		C311.69,164.99,309.927,166.617,307.902,166.617z"/>
	<polygon fill="#25B9C5" points="143.848,190 125.175,220 184.149,220 165.495,190 	"/>
	<path fill="#25B9C5" d="M246.973,227H58.699c-0.665,0-1.699,0.671-1.699,1.313v8.612c0,0.665,1.034,1.075,1.699,1.075h188.274
		c0.665,0,1.027-0.41,1.027-1.075v-8.612C248,227.671,247.637,227,246.973,227z"/>
	<polygon fill="#25B9C5" points="209.179,245 220.852,264 234.153,264 222.498,245 	"/>
</g>
</svg>
