<?xml version="1.0" encoding="utf-8"?>
<!-- Generator: Adobe Illustrator 17.0.0, SVG Export Plug-In . SVG Version: 6.00 Build 0)  -->
<!DOCTYPE svg PUBLIC "-//W3C//DTD SVG 1.1//EN" "http://www.w3.org/Graphics/SVG/1.1/DTD/svg11.dtd">
<svg version="1.1" id="Layer_1" xmlns="http://www.w3.org/2000/svg" xmlns:xlink="http://www.w3.org/1999/xlink" x="0px" y="0px"
	 width="427.145px" height="143px" viewBox="0 0 427.145 143" enable-background="new 0 0 427.145 143" xml:space="preserve">
<path fill="none" stroke="#FFFFFF" stroke-width="4" stroke-miterlimit="10" d="M348.614,61.805c0-5.376-0.007-10.753,0.003-16.129
	c0.005-2.988,1.664-4.85,4.282-4.848c2.608,0.002,4.286,1.882,4.292,4.855c0.012,5.811-0.035,11.622,0.058,17.432
	c0.011,0.706,23.846-3.778,24.096,5.956c0.01,8.743,0.01,9.069,0.001,17.813c-0.005,5.041-4.122,9.452-9.198,9.537
	c-7.601,0.127-15.206,0.1-22.807-0.026c-1.113-0.019-2.453-0.697-3.277-1.495c-4.602-4.457-9.084-9.039-13.593-13.593
	c-1.259-1.272-1.062-2.549,0.498-3.627c2.513-1.735,6.412-1.472,8.784,0.631c0.812,0.719,1.457,1.67,2.353,2.237
	c0.781,0.493,1.86,0.926,2.716,0.793c1.349-0.21,1.773-1.469,1.779-2.753c0.019-3.964,0.01-7.929,0.011-11.893
	C348.614,65.064,348.614,63.435,348.614,61.805z"/>
<line fill="none" stroke="#FFFFFF" stroke-width="4" stroke-miterlimit="10" x1="213" y1="45" x2="213" y2="98"/>
<line fill="none" stroke="#FFFFFF" stroke-width="4" stroke-miterlimit="10" x1="186" y1="72" x2="239" y2="72"/>
<g>
	<circle fill="none" stroke="#FFFFFF" stroke-width="4" stroke-miterlimit="10" cx="66.368" cy="63.805" r="22.013"/>
	<line fill="none" stroke="#FFFFFF" stroke-width="4" stroke-miterlimit="10" x1="98.646" y1="96.578" x2="81.456" y2="78.645"/>
</g>
</svg>
