<?xml version="1.0" encoding="utf-8"?>
<!-- Generator: Adobe Illustrator 17.0.0, SVG Export Plug-In . SVG Version: 6.00 Build 0)  -->
<!DOCTYPE svg PUBLIC "-//W3C//DTD SVG 1.1//EN" "http://www.w3.org/Graphics/SVG/1.1/DTD/svg11.dtd">
<svg version="1.1" id="Layer_1" xmlns="http://www.w3.org/2000/svg" xmlns:xlink="http://www.w3.org/1999/xlink" x="0px" y="0px"
	 width="440px" height="303px" viewBox="0 0 440 303" enable-background="new 0 0 440 303" xml:space="preserve">
<g>
	<path fill="#25BAC6" d="M193.059,126.325c0.38-2.14,0.579-4.335,0.579-6.595c0-8.306-2.637-14.971-7.903-20
		c-5.268-5.022-12.262-7.541-20.969-7.541c-4.961,0-9.561,0.916-13.795,2.748c-4.237,1.83-7.881,4.442-10.932,7.84
		c-2.762,3.155-4.88,6.67-6.353,10.543c-1.472,3.875-2.208,7.908-2.208,12.098c0,0.309,0.03,0.603,0.035,0.906H193.059z"/>
	<path fill="#232323" d="M116.128,115.296c2.818-3.192,4.235-7.186,4.235-11.979c0-2.719-0.542-5.219-1.61-7.495
		c-1.064-2.278-2.642-4.233-4.71-5.864c-2.079-1.634-4.578-2.785-7.501-3.467c-2.923-0.68-7.68-1.02-14.271-1.02H76.817
		l-9.842,74.643h17.232c4.079,0,7.57-0.085,10.457-0.255c2.887-0.169,5.198-0.407,6.93-0.714c3.538-0.714,6.447-1.814,8.723-3.313
		c3.123-2.105,5.496-4.717,7.111-7.823c1.616-3.112,2.422-6.586,2.422-10.431c0-4.418-1.341-8.082-4.032-10.988
		c-2.68-2.908-6.419-4.714-11.215-5.431C109.465,120.446,113.306,118.492,116.128,115.296 M100.581,145.354
		c-2.485,1.616-6.988,2.422-13.519,2.422h-3.062l2.656-19.732h2.805c5.744,0,9.651,0.705,11.73,2.115
		c2.073,1.411,3.11,3.731,3.11,6.96C104.302,140.996,103.061,143.739,100.581,145.354 M101.903,113.513
		c-2.211,1.498-6.221,2.244-12.034,2.244h-1.685l2.396-18.1h1.379c5.306,0,8.841,0.604,10.605,1.81
		c1.771,1.204,2.653,3.359,2.653,6.45C105.218,109.487,104.115,112.019,101.903,113.513"/>
	<path fill="#232323" d="M192.232,93.341c-6.751-6.435-15.696-9.656-26.846-9.656c-6.356,0-12.247,1.173-17.668,3.518
		c-5.422,2.342-10.087,5.691-13.992,10.036c-3.536,4.043-6.249,8.544-8.132,13.504c-1.889,4.958-2.832,10.122-2.832,15.485
		c0,10.839,3.381,19.519,10.147,26.04c6.761,6.522,15.702,9.783,26.82,9.783c6.558,0,12.597-1.231,18.122-3.695
		c5.521-2.46,10.343-6.071,14.454-10.825c3.267-3.771,5.751-8.11,7.476-13.02c1.71-4.905,2.57-10.094,2.57-15.564
		C202.352,108.311,198.977,99.777,192.232,93.341 M164.517,97.249c6.666,0,11.968,2.029,15.909,6.086
		c3.94,4.058,5.914,9.537,5.914,16.427c0,1.517-0.087,2.992-0.264,4.421h-47.323c0.314-7.488,2.755-13.762,7.337-18.809
		C151.006,99.957,157.144,97.249,164.517,97.249 M160.542,148.489c-6.63,0-11.93-2.036-15.906-6.111
		c-1.807-1.864-3.183-3.96-4.131-6.287h9.547c2.388,3.309,6.27,5.46,10.661,5.46s8.278-2.151,10.666-5.46h10.631
		c-0.891,1.446-1.917,2.821-3.087,4.123C173.979,145.731,167.849,148.489,160.542,148.489"/>
	<path fill="#232323" d="M253.699,119.122c3.196-3.705,4.798-8.415,4.798-14.124c0-3.057-0.634-5.888-1.886-8.488
		c-1.259-2.601-3.1-4.784-5.51-6.552c-2.209-1.634-4.716-2.785-7.518-3.467c-2.807-0.68-7.509-1.02-14.102-1.02h-15.547
		l-9.845,74.643h15.704l4.492-34.262l15.344,34.262h17.13l-16.926-33.397C245.883,125.358,250.506,122.829,253.699,119.122
		 M239.651,115.324c-2.123,1.613-6.144,2.422-12.056,2.422H225.3l2.598-19.886h1.787c5.204,0,8.695,0.681,10.479,2.041
		c1.786,1.359,2.68,3.723,2.68,7.087C242.844,110.931,241.774,113.709,239.651,115.324"/>
	<polygon fill="#232323" points="311.272,98.625 312.905,85.471 268.546,85.471 258.704,160.115 303.112,160.115 304.896,146.959 
		275.936,146.959 278.387,128.25 307.29,128.25 308.971,115.402 280.117,115.402 282.314,98.625 	"/>
	<path fill="#232323" d="M377.509,101.352c-2.821-5.455-6.816-9.541-11.985-12.259c-2.514-1.328-5.589-2.245-9.226-2.757
		c-1.87-0.307-4.368-0.524-7.495-0.659c-3.128-0.14-6.885-0.206-11.268-0.206h-15.652l-9.842,74.643h13.713h5.968
		c9.925,0,17.276-0.562,22.05-1.684c4.776-1.12,8.93-2.958,12.465-5.507c5.339-3.837,9.26-8.353,11.754-13.537
		c2.497-5.182,3.748-11.429,3.748-18.735C381.739,113.24,380.331,106.808,377.509,101.352 M363.895,131.945
		c-1.225,3.583-2.977,6.57-5.253,8.945c-2.106,2.213-4.732,3.774-7.879,4.692c-3.14,0.918-7.418,1.379-12.819,1.379l-7.648-0.204
		h-0.918l6.271-47.725h10.046c7.167,0,12.302,1.623,15.396,4.868c3.092,3.247,4.642,8.545,4.642,15.883
		C365.732,124.305,365.117,128.359,363.895,131.945"/>
</g>
<g>
	<path fill="#232323" d="M89.322,224.713l4.06-30.842H83.68l0.868-6.536h26.527l-0.843,6.536h-9.038l-4.034,30.842H89.322z"/>
	<path fill="#232323" d="M146.088,225.683c-5.565,0-10.042-1.633-13.429-4.898c-3.388-3.266-5.081-7.611-5.081-13.038
		c0-2.688,0.473-5.272,1.417-7.756s2.302-4.737,4.072-6.762c1.957-2.178,4.293-3.853,7.008-5.026s5.664-1.761,8.847-1.761
		c5.583,0,10.063,1.612,13.442,4.835c3.379,3.224,5.068,7.497,5.068,12.821c0,2.739-0.431,5.337-1.29,7.795s-2.106,4.631-3.74,6.519
		c-2.06,2.382-4.472,4.189-7.238,5.422C152.399,225.066,149.373,225.683,146.088,225.683z M148.488,193.233
		c-3.693,0-6.771,1.355-9.229,4.067c-2.46,2.713-3.689,6.126-3.689,10.241c0,1.769,0.238,3.328,0.715,4.68
		c0.477,1.353,1.226,2.556,2.247,3.609c1.991,2.041,4.646,3.061,7.966,3.061c3.659,0,6.728-1.381,9.203-4.145
		c2.477-2.763,3.715-6.177,3.715-10.24c0-3.452-0.987-6.193-2.961-8.226C154.48,194.249,151.824,193.233,148.488,193.233z"/>
	<path fill="#232323" d="M187.127,224.713l4.928-37.378h7.838c2.195,0,4.076,0.034,5.643,0.103c1.565,0.068,2.816,0.179,3.753,0.332
		c1.821,0.255,3.361,0.715,4.621,1.379c2.587,1.361,4.587,3.408,6,6.14c1.412,2.732,2.119,5.953,2.119,9.664
		c0,3.659-0.626,6.787-1.877,9.382c-1.251,2.597-3.213,4.855-5.885,6.779c-1.771,1.276-3.852,2.195-6.242,2.757
		c-2.392,0.562-6.072,0.843-11.042,0.843h-2.987H187.127z M195.808,218.023h0.46l3.829,0.103c2.706,0,4.847-0.229,6.421-0.689
		s2.89-1.242,3.945-2.349c1.14-1.191,2.017-2.685,2.629-4.481c0.613-1.795,0.92-3.825,0.92-6.089c0-3.677-0.775-6.327-2.323-7.953
		c-1.55-1.625-4.12-2.438-7.711-2.438h-5.029L195.808,218.023z"/>
	<path fill="#232323" d="M238.124,224.713l19.353-37.378h8.527l8.986,37.378h-8.297l-1.583-8.042H250.89l-4.034,8.042H238.124z
		 M263.655,210.543l-1.788-8.834l-0.459-3.268l-0.383-4.621c-0.171,0.681-0.354,1.327-0.549,1.94
		c-0.196,0.612-0.4,1.204-0.613,1.774s-0.438,1.145-0.677,1.723c-0.238,0.579-0.477,1.115-0.715,1.609l-4.544,9.676H263.655z"/>
	<path fill="#232323" d="M300.762,224.713l2.706-17.157l-9.446-20.221h8.629l3.651,9.396c0.136,0.392,0.238,0.682,0.307,0.868
		c0.204,0.579,0.374,1.098,0.511,1.558l0.638,2.63c0.307-0.817,1.149-2.332,2.527-4.545l0.409-0.664l5.923-9.242h9.191
		l-14.477,20.17l-2.731,17.208H300.762z"/>
	<path fill="#232323" d="M347.418,213.249l1.302-9.753h0.307c2.723,0,4.876-0.612,6.459-1.838s2.375-2.901,2.375-5.029
		c0-1.26-0.38-2.307-1.137-3.141c-0.758-0.834-1.74-1.251-2.949-1.251c-1.26,0-2.311,0.388-3.152,1.161
		c-0.843,0.775-1.426,1.902-1.749,3.384h-6.689c0.307-3.149,1.562-5.659,3.766-7.532c2.204-1.872,5.025-2.809,8.464-2.809
		c3.2,0,5.771,0.928,7.711,2.783c1.939,1.855,2.91,4.34,2.91,7.455s-0.898,5.693-2.693,7.736c-1.796,2.042-4.241,3.268-7.337,3.676
		l-0.693,5.157H347.418z M345.579,221.292c0-1.226,0.426-2.256,1.276-3.09c0.852-0.833,1.873-1.251,3.064-1.251
		c1.226,0,2.264,0.418,3.114,1.251c0.852,0.834,1.276,1.864,1.276,3.09c0,1.174-0.43,2.2-1.289,3.076
		c-0.859,0.877-1.894,1.314-3.102,1.314c-1.209,0-2.234-0.43-3.077-1.289C346.001,223.534,345.579,222.5,345.579,221.292z"/>
</g>
</svg>
