<?xml version="1.0" encoding="utf-8"?>
<!-- Generator: Adobe Illustrator 17.0.0, SVG Export Plug-In . SVG Version: 6.00 Build 0)  -->
<!DOCTYPE svg PUBLIC "-//W3C//DTD SVG 1.1//EN" "http://www.w3.org/Graphics/SVG/1.1/DTD/svg11.dtd">
<svg version="1.1" id="Layer_1" xmlns="http://www.w3.org/2000/svg" xmlns:xlink="http://www.w3.org/1999/xlink" x="0px" y="0px"
	 width="350px" height="350px" viewBox="0 0 350 350" enable-background="new 0 0 350 350" xml:space="preserve">
<g>
	<path fill="#25B9C5" d="M237.679,149.94c-5.684-5.547-11.332-11.188-16.786-16.765c-1.757-1.797-3.578-2.384-6.089-2.384
		c-8.567,0.026-17.208,0.209-25.275,0.209h-11.184c-10.222,0-22.107-0.175-33.789-0.116c-3.542,0.018-6.167,1.01-7.202,2.88
		c-0.939,1.695-0.594,4.386,0.937,7.104c1.572,1.002,3.501,1.132,5.387,2.132h63.654l-45.626,43.148l-2.208-1.359
		c-3.158-1.768-21.783-11.401-28.835-14.724c-2.734-1.288-4.561-1.894-5.923-1.894c-1.489,0-3.084,0.655-6.435,3.991
		c-2.829,2.817-5.647,5.637-8.465,8.466c-4.942,4.96-10.051,10.085-15.148,15.072c-4.266,4.174-2.404,7.625-1.805,8.502
		c1.665,1.855,3.249,2.794,4.711,2.794c1.552,0,3.335-1.009,5.299-2.998c7.539-7.634,13.768-13.831,19.602-19.504
		c1.136-1.104,3.302-2.292,5.376-2.292c0.704,0,1.362,0.137,1.955,0.408c8.369,3.817,16.633,7.752,25.382,11.918
		c2.258,1.075,4.544,2.164,6.868,3.268c1.336,0.635,2.899,1.374,3.273,2.957c0.313,1.321-0.522,2.547-1.823,2.903
		c-0.059,0.016-7.572,2.073-7.572,2.073c-3.776,1.035-7.295,2.001-10.819,2.955c-1.606,0.435-3.234,0.852-4.808,1.255
		c-3.491,0.894-7.101,1.818-10.509,2.957c-1.633,0.546-3.265,1.627-4.061,2.691c-6.311,8.434-12.551,17.165-18.586,25.609
		l-3.21,4.489c-0.528,0.739-1.01,1.555-1.571,2.53c-0.05,0.112-0.104,0.22-0.163,0.327c-0.497,1.909-0.327,3.585,0.508,4.995
		c2.104,1.638,3.911,2.468,5.378,2.468c0.673,0,2.722,0,5.832-4.303c1.335-1.846,2.667-3.695,3.998-5.544
		c4.531-6.29,9.215-12.795,13.964-19.108c1.551-2.063,4.052-3.787,6.527-4.501c8.721-2.512,17.63-4.838,26.247-7.087l1.461-0.382
		c0.861-0.225,1.726-0.438,2.591-0.652c4.266-1.051,8.857-2.072,12.282-5.005c1.686-1.444,2.724-3.381,4.25-4.964
		c1.742-1.806,3.813-3.252,5.646-4.959c10.689-9.957,21.484-20.031,32.073-30.093l6.012-5.508v7.996
		c0,1.674-0.212,3.289-0.209,4.859c0.009,4.711-0.09,9.161-0.17,13.55c-0.043,2.371-1.768,4.24-2.279,4.757
		c-7.058,7.132-21.185,22.622-23.868,26.022c-0.028,1.45,0.404,2.785,1.295,3.896c1.057,1.319,2.649,2.247,4.476,2.627
		c0.251-0.142,0.494-0.281,0.736-0.417c1.918-1.08,3.43-1.934,4.518-2.978c4.894-4.702,9.777-9.605,14.5-14.347
		c3.142-3.155,6.391-6.417,9.622-9.6c1.811-1.784,2.616-3.684,2.611-6.16c-0.026-11.909-0.022-24.336,0.011-37.992
		C240.247,153.579,239.457,151.676,237.679,149.94z"/>
	<path fill="#25B9C5" d="M206.239,206.402c5.749-6.319,11.704-12.666,15.17-16.169c0.1-0.101,0.19-0.226,0.245-0.319
		c0.057-3.265,0.065-6.588,0.062-10.036c-11.006,10.449-21.66,20.526-27.877,26.271l8.828,4.201
		C203.696,209.204,204.876,207.9,206.239,206.402z"/>
	<polygon fill="#25B9C5" points="190.154,149 149.122,149 162.848,174.97 	"/>
	<path fill="#25B9C5" d="M175,22.867C90.979,22.867,22.867,90.979,22.867,175S90.979,327.133,175,327.133
		S327.133,259.021,327.133,175S259.021,22.867,175,22.867z M247.094,194.089c0.01,4.349-1.514,7.968-4.658,11.065
		c-3.209,3.16-6.446,6.41-9.576,9.553c-4.749,4.769-9.66,9.7-14.609,14.453c-1.715,1.648-3.75,2.794-5.905,4.009
		c-0.463,0.261-0.946,0.394-1.44,0.679L202.579,286h-6.95l8.412-52.683c-2.224-0.928-4.178-2.288-5.641-4.113
		c-2.197-2.74-3.159-6.18-2.709-9.749c0.093-0.741,0.156-1.195,2.281-3.756l-9.346-4.438c-4.844,6.515-11.934,8.272-18.244,9.828
		c-0.835,0.206-1.671,0.414-2.501,0.631l-1.462,0.383c-8.575,2.238-17.442,4.553-26.08,7.042c-1.046,0.301-2.283,1.155-2.941,2.03
		c-4.707,6.257-9.37,12.733-13.881,18.995c-1.334,1.852-2.668,3.704-4.005,5.553c-3.476,4.808-7.203,7.145-11.395,7.145
		c-3.224,0-6.534-1.417-10.117-4.331l-0.372-0.303l-0.275-0.393c-2.312-3.305-2.869-7.467-1.57-11.72l0.146-0.478l0.216-0.331
		l0.178-0.311c0.683-1.192,1.309-2.264,2.059-3.312l3.208-4.486c6.056-8.474,12.318-17.236,18.674-25.73
		c1.638-2.189,4.397-4.092,7.381-5.089c3.643-1.217,7.375-2.173,10.983-3.096c1.552-0.397,3.156-0.808,4.716-1.231
		c2.455-0.665,4.909-1.335,7.448-2.031c-7.936-3.778-15.494-7.369-23.103-10.848c-0.165,0.077-0.334,0.174-0.419,0.248
		c-5.787,5.628-11.985,11.794-19.491,19.394c-3.302,3.343-6.727,5.038-10.183,5.038c-3.554,0-6.911-1.767-9.977-5.251l-0.231-0.262
		l-0.086-0.151c-2.354-3.358-4.35-10.617,2.587-17.406c5.066-4.956,10.16-10.069,15.086-15.014c2.824-2.835,5.649-5.67,8.484-8.493
		c3.621-3.605,6.925-6.007,11.279-6.007c2.457,0,5.104,0.753,8.85,2.518c4.688,2.209,13.983,6.916,20.946,10.51l-13.392-25.336
		c-2.452-0.595-5.105-1.468-7.486-3.255l-0.518-0.389l-0.341-0.551c-4.309-6.964-2.787-11.984-1.474-14.382L96.128,63.8
		c2.574,0.01,5.148-0.019,7.722-0.08l32.682,61.833c2.241-1.101,4.954-1.585,7.989-1.6c11.699-0.059,23.593,0.048,33.824,0.048
		h11.184c8.061,0,16.696,0,25.216,0h0.059c4.354,0,7.951,1.388,10.997,4.502c5.416,5.539,11.026,11.078,16.672,16.588
		c3.084,3.011,4.642,6.715,4.632,11.071C247.072,169.806,247.068,182.191,247.094,194.089z M251.988,134.828
		c-11.278,4.108-23.672-2.886-25.967-14.654c-2.067-10.597,4.877-20.834,15.459-22.921C242.259,97.1,243.049,97,243.833,97
		c0.966,0,1.933,0,2.899,0c1.163,0,2.344,0.243,3.487,0.534c7.629,1.944,13.423,8.411,14.49,16.215
		C265.963,122.921,260.664,131.668,251.988,134.828z"/>
	<path fill="#25B9C5" d="M245.332,103.907c-6.962-0.014-12.523,5.506-12.539,12.447c-0.016,6.941,5.531,12.516,12.465,12.528
		c6.934,0.012,12.508-5.549,12.513-12.482C257.776,109.479,252.24,103.92,245.332,103.907z"/>
</g>
</svg>
