<?xml version="1.0" encoding="utf-8"?>
<!-- Generator: Adobe Illustrator 17.0.0, SVG Export Plug-In . SVG Version: 6.00 Build 0)  -->
<!DOCTYPE svg PUBLIC "-//W3C//DTD SVG 1.1//EN" "http://www.w3.org/Graphics/SVG/1.1/DTD/svg11.dtd">
<svg version="1.1" id="Layer_1" xmlns="http://www.w3.org/2000/svg" xmlns:xlink="http://www.w3.org/1999/xlink" x="0px" y="0px"
	 width="350px" height="350px" viewBox="0 0 350 350" enable-background="new 0 0 350 350" xml:space="preserve">
<g>
	<path fill="#25B9C5" d="M214.614,216.575c1.734,2.73,3.263,3.387,4.531,3.67c0.61,0.136,1.29,0.202,2.076,0.202
		c0.506,0,1.065-0.029,1.659-0.085c5.247-0.502,10.563-0.728,15.715-0.947c2.099-0.088,4.198-0.184,6.296-0.291l0.083-0.02
		c1.214-0.55,2.428-1.1,3.636-1.656c2.486-1.144,4.957-2.477,6.204-4.475c0.462-0.739,0.816-1.642,0.903-2.302l0.018-0.136
		l-0.112-0.08c-0.248-0.178-0.736-0.459-1.649-0.793c-1.566-0.572-3.128-1.155-4.689-1.738l-0.146-0.055
		c-2.909-1.088-6.207-2.32-9.379-3.399l-1.206-0.413c-3.941-1.357-7.653-2.635-11.375-2.395c-3.368,0.213-6.731,1.222-10.291,2.292
		c-1.052,0.315-2.138,0.642-3.226,0.945c-1.806,0.504-3.654,1.022-5.528,1.55l-0.312,0.088l0.187,0.265
		C210.622,210.489,212.721,213.595,214.614,216.575z"/>
	<path fill="#25B9C5" d="M184.966,215.603l0.089-0.126l-6.49-10.212l5.841-3.712l8.409,13.232c1.155,1.639,2.279,3.284,3.331,4.829
		c2.881,4.232,5.603,8.229,8.741,11.706c1.867,2.07,4.65,3.845,6.766,4.316c0.351,0.078,0.672,0.119,0.955,0.122
		c8.93,0.096,18.092-0.488,26.955-1.051c3.124-0.198,5.944-0.376,8.812-0.537c0.962-0.054,1.811-0.192,2.541-0.397
		c0.84-0.54,1.675-1.087,2.5-1.654c0.366-0.665,0.5-1.568,0.372-2.722c-0.218-1.986-0.997-2.879-2.878-3.298
		c-0.891-0.198-1.989-0.262-3.257-0.186c-2.918,0.172-5.889,0.297-8.763,0.419c-5.047,0.213-10.266,0.433-15.349,0.92
		c-2.256,0.217-4.171,0.135-5.899-0.25c-3.609-0.804-6.51-3-8.868-6.713c-3.94-6.205-8.397-12.296-12.707-18.186l-0.259-0.354
		c-1.453-1.988-2.906-3.975-4.343-5.973c-3.18-4.417-6.51-7.04-9.898-7.795c-4.27-0.951-8.815,1.155-13.434,6.226
		c-3.729,4.096-15.65,19.294-23.806,29.776c1.797,2.039,3.758,3.99,5.887,5.83c4.98,4.307,10.736,7.975,16.978,10.894
		L184.966,215.603z"/>
	<path fill="#25B9C5" d="M214.179,184.012c6.495,0,11.766-5.267,11.77-11.741c0.004-6.466-5.357-11.737-11.812-11.75L214,160.407
		v0.114c-6,0-11.643,5.142-11.658,11.708c-0.007,3.158,1.26,6.118,3.467,8.336C208.016,182.782,211.025,184.007,214.179,184.012z"/>
	<path fill="#25B9C5" d="M203.213,240.448l1.253-0.52l-0.357-0.237c-1.605-1.069-3.154-2.395-4.362-3.735
		c-3.441-3.811-6.291-7.995-9.323-12.446c-0.334-0.491-0.673-0.988-1.014-1.485l-0.125-0.183l-0.133,0.084l-0.303-0.478
		l-14.987,22.02c4.239,1.539,8.641,2.741,13.134,3.574c0.344-0.118,0.69-0.238,1.03-0.362c3.55-1.295,7.127-2.818,10.587-4.291
		C200.145,241.738,201.676,241.086,203.213,240.448z"/>
	<path fill="#25B9C5" d="M216.498,242.676l-0.086,0.017c-3.521,1.47-7.015,2.922-10.464,4.352c-1.061,0.439-2.117,0.89-3.175,1.339
		c10.881-0.118,21.966-2.311,32.381-6.468C229.027,242.291,222.773,242.618,216.498,242.676z"/>
	<path fill="#25B9C5" d="M175,22.867C90.979,22.867,22.867,90.979,22.867,175S90.979,327.133,175,327.133
		S327.133,259.021,327.133,175S259.021,22.867,175,22.867z M212.096,153.616c0.237-0.034,0.474-0.068,0.711-0.105l2.771-0.001
		c0.369,0.066,0.719,0.124,1.07,0.181c0.749,0.123,1.523,0.251,2.27,0.441c7.264,1.851,12.829,8.101,13.847,15.551
		c1.19,8.704-3.922,17.199-12.155,20.199c-2.061,0.75-4.206,1.131-6.377,1.131h-0.001c-8.973,0-16.726-6.365-18.437-15.135
		c-1.978-10.143,4.648-20.019,14.773-22.014C211.075,153.764,211.595,153.689,212.096,153.616z M256.107,220.851
		c2.601,1.637,4.177,4.33,4.559,7.787c0.462,4.193-0.955,6.86-2.226,8.359c-1.191,1.408-2.775,2.447-4.71,3.136
		c-3.939,2.474-8.02,4.666-12.183,6.538c-12.601,5.665-26.311,8.596-39.712,8.596c-4.732,0-9.427-0.366-14.019-1.106
		c-15.805-2.546-30.754-9.349-42.095-19.157c-13.117-11.344-20.759-26.394-21.518-42.379c-0.555-11.687,2.577-30.317,20.649-52.709
		c5.987-7.419,13.525-13.317,22.403-17.532c5.046-2.396,11.84-5.25,19.34-6.404c-9.87-5.812-21.952-10.218-34.984-12.683
		c-21.625-4.088-43.487-0.058-62.02,4.425l-1.614-6.672c19.244-4.654,42.004-8.83,64.909-4.497
		c18.177,3.437,34.705,10.502,46.54,19.892l9.528,7.56l-12.075-1.464c-7.581-0.918-16.058,1.001-26.68,6.045
		c-7.94,3.769-14.671,9.032-20.006,15.642c-16.718,20.714-19.633,37.575-19.134,48.073c0.441,9.289,3.564,18.239,8.979,26.159
		c8.411-11.022,18.401-23.886,22.977-28.912c5.263-5.78,10.825-8.71,16.533-8.71c1.182,0,2.367,0.13,3.523,0.388
		c5.094,1.136,9.808,4.67,14.009,10.507c1.471,2.045,2.957,4.077,4.444,6.111l0.126,0.171c0.719,0.982,1.442,1.973,2.166,2.966
		l0.094,0.129l0.153-0.043c2.696-0.762,5.345-1.507,7.912-2.223c1.008-0.281,2.008-0.581,3.107-0.911
		c3.744-1.124,7.614-2.286,11.702-2.545c0.433-0.027,0.876-0.041,1.316-0.041c4.46,0,8.547,1.405,12.518,2.772l1.168,0.4
		c3.2,1.088,6.396,2.282,9.486,3.437l0.11,0.041c1.581,0.591,3.163,1.182,4.75,1.761c3.644,1.33,5.616,3.33,5.861,5.945
		c0.269,2.866-1.199,5.574-1.843,6.604c-0.984,1.575-2.309,2.938-4.051,4.166l-0.281,0.198L256.107,220.851z"/>
</g>
</svg>
