<?xml version="1.0" encoding="utf-8"?>
<!-- Generator: Adobe Illustrator 17.0.0, SVG Export Plug-In . SVG Version: 6.00 Build 0)  -->
<!DOCTYPE svg PUBLIC "-//W3C//DTD SVG 1.1//EN" "http://www.w3.org/Graphics/SVG/1.1/DTD/svg11.dtd">
<svg version="1.1" id="Layer_1" xmlns="http://www.w3.org/2000/svg" xmlns:xlink="http://www.w3.org/1999/xlink" x="0px" y="0px"
	 width="350px" height="350px" viewBox="0 0 350 350" enable-background="new 0 0 350 350" xml:space="preserve">
<g>
	<path fill="#25B9C5" d="M105.001,128c-1.64,0-3.001,1.1-3.001,2.741v29.471c0,1.642,1.361,2.789,3.001,2.789h9.029
		c1.642,0,2.97-1.147,2.97-2.789v-29.471c0-1.64-1.328-2.741-2.97-2.741H105.001z"/>
	<rect x="129" y="215" fill="#25B9C5" width="11" height="8"/>
	<path fill="#25B9C5" d="M238,169h-2.03c-4.651,0-7.97-4.138-7.97-8.789v-29.471c0-4.65,3.319-8.741,7.97-8.741H238v-8h-14.061
		l-29.771,80H238V169z"/>
	<path fill="#25B9C5" d="M235.97,163h9.029c1.641,0,3.001-1.147,3.001-2.789v-29.471c0-1.64-1.36-2.741-3.001-2.741h-9.029
		c-1.642,0-2.97,1.1-2.97,2.741v29.471C233,161.853,234.328,163,235.97,163z"/>
	<path fill="#25B9C5" d="M248,122.858v-4.875c0-2.759-2-5.151-4-5.884V122h0.999C246.02,122,247,122.492,248,122.858z"/>
	<rect x="210" y="215" fill="#25B9C5" width="11" height="8"/>
	<path fill="#25B9C5" d="M238,209v-9H112v9h30.56c1.506,0,2.44,1.401,2.44,2.907v14.195c0,2.251,2.124,3.898,4.375,3.898h51.1
		c2.251,0,4.525-1.647,4.525-3.898v-14.195c0-1.506,0.783-2.907,2.29-2.907H238z M196.88,222h-44.666
		c-1.504,0-2.728-0.994-2.728-2.498c0-1.506,1.224-2.502,2.728-2.502h44.666c1.504,0,2.728,0.996,2.728,2.502
		C199.608,221.006,198.384,222,196.88,222z"/>
	<rect x="112" y="215" fill="#25B9C5" width="11" height="8"/>
	<path fill="#25B9C5" d="M123.809,239h102.233c5.995,0,11.132-4,11.912-10h-28.345c-1.203,4-4.908,7-9.134,7h-51.1
		c-4.225,0-7.931-3-9.134-7h-28.345C112.676,235,117.814,239,123.809,239z"/>
	<polygon fill="#25B9C5" points="211.475,114 181.704,194 188.346,194 218.12,114 	"/>
	<path fill="#25B9C5" d="M226.041,245H215v6h14v-6.573C228,244.626,227.113,245,226.041,245z"/>
	<path fill="#25B9C5" d="M121,244.427V251h14v-6h-11.191C122.737,245,122,244.626,121,244.427z"/>
	<rect x="227" y="215" fill="#25B9C5" width="11" height="8"/>
	<path fill="#25B9C5" d="M175,22.867C90.979,22.867,22.867,90.979,22.867,175S90.979,327.133,175,327.133
		c84.021,0,152.133-68.112,152.133-152.133S259.021,22.867,175,22.867z M253,160.211c0,4.65-3.35,8.789-8.001,8.789H244v58.252
		c0,6.259-4,12.044-9,15.163v10.938c0,1.504-1.508,2.646-3.015,2.646h-19.872c-1.504,0-3.113-1.142-3.113-2.646V245h-69v8.354
		c0,1.504-0.759,2.646-2.263,2.646h-19.872c-1.506,0-2.865-1.142-2.865-2.646v-10.938c-5-3.119-9-8.904-9-15.163V169h-0.999
		c-4.651,0-8.001-4.138-8.001-8.789v-42.229c0-5.704,4-10.545,9-11.424v-1.748C106,98.805,111.22,94,117.226,94h115.397
		C238.63,94,244,98.805,244,104.811v1.72c5,0.813,9,5.665,9,11.452V160.211z"/>
	<path fill="#25B9C5" d="M232.623,99H117.226c-2.998,0-5.226,2.813-5.226,5.811V109h126v-4.189C238,101.813,235.621,99,232.623,99z"
		/>
	<path fill="#25B9C5" d="M112,169v25h20.977l29.773-80H112v8h2.03c4.651,0,7.97,4.09,7.97,8.741v29.471
		c0,4.65-3.319,8.789-7.97,8.789H112z"/>
	<polygon fill="#25B9C5" points="175.882,194 205.656,114 168.57,114 138.799,194 	"/>
	<path fill="#25B9C5" d="M106,122v-9.859c-2,0.783-4,3.155-4,5.841v4.874c1-0.365,1.979-0.857,3.001-0.857H106z"/>
</g>
</svg>
