<?xml version="1.0" encoding="utf-8"?>
<!-- Generator: Adobe Illustrator 17.0.0, SVG Export Plug-In . SVG Version: 6.00 Build 0)  -->
<!DOCTYPE svg PUBLIC "-//W3C//DTD SVG 1.1//EN" "http://www.w3.org/Graphics/SVG/1.1/DTD/svg11.dtd">
<svg version="1.1" id="Layer_1" xmlns="http://www.w3.org/2000/svg" xmlns:xlink="http://www.w3.org/1999/xlink" x="0px" y="0px"
	 width="350px" height="350px" viewBox="0 0 350 350" enable-background="new 0 0 350 350" xml:space="preserve">
<g>
	<path fill="#25B9C5" d="M228.62,169.671c-1.061-0.331-7.221-1.716-12.665-2.94c-6.445-1.449-13.749-3.091-17.334-4.024
		c-2.756-0.718-5.633-2.848-7.158-5.3c-5.446-8.755-10.545-17.397-15.153-25.687c-2.538-4.565-6.399-7.815-12.152-10.226
		c-1.622-0.68-3.163-1.024-4.582-1.024c-2.467,0-4.413,1.025-5.95,3.134c-3.281,4.504-6.447,9.319-7.383,14.017
		c-4.047,20.332-7.601,41.14-11.038,61.263c-0.676,3.958-1.352,7.915-2.032,11.872c-0.955,5.557-2.418,11.435-6.62,16.776
		c-5.327,6.77-10.475,13.912-15.453,20.817c-1.429,1.982-2.857,3.963-4.291,5.939c-1.234,1.701-2.044,3.105-2.549,4.417
		c-0.843,2.196-0.745,3.392,2.07,4.68c1.248,0.571,2.295,0.849,3.201,0.849c1.389,0,3.485-0.598,7.403-5.264
		c1.309-1.56,2.624-3.117,3.938-4.675c6.523-7.73,13.268-15.723,19.328-23.937c2.269-3.076,3.584-7.327,4.856-11.438
		c0.191-0.618,0.381-1.232,0.573-1.84c0.692-2.189,1.014-4.561,1.386-7.307c0.181-1.335,0.368-2.715,0.613-4.17l0.893-5.316
		l4.439,3.058c2.061,1.42,4.091,2.8,6.093,4.161c5.207,3.539,10.125,6.882,14.968,10.492c2.709,2.019,4.946,4.991,5.982,7.95
		c2.729,7.795,5.311,15.768,7.807,23.478c1.245,3.847,2.533,7.825,3.821,11.725c0.851,2.577,2.867,6.899,6.803,6.899
		c0.685,0,1.416-0.128,2.173-0.38c1.567-0.521,6.336-2.109,3.641-10.458c-0.821-2.544-1.639-5.088-2.458-7.633
		c-3.693-11.486-7.512-23.363-11.533-34.93c-0.624-1.796-2.305-3.894-4.281-5.347c-5.684-4.177-11.69-7.856-16.816-10.903
		c-4.81-2.86-4.598-6.895-4.02-9.682c1.243-5.992,2.432-12.111,3.582-18.028c0.414-2.133,0.829-4.265,1.246-6.397
		c0.558-2.848,1.112-5.697,1.735-8.905l2.69-13.825l4.598,7.768c1.101,1.86,2.138,3.6,3.127,5.26
		c2.225,3.734,4.147,6.958,6.052,10.293c1.225,2.145,2.872,3.23,5.685,3.746c2.8,0.514,6.486,1.316,10.387,2.164
		c8.476,1.844,19.024,4.139,23.754,4.139c0.287,0,0.543-0.009,0.76-0.027c1.338-0.11,1.76-1.051,1.879-1.821
		C230.811,171.974,230.382,170.424,228.62,169.671z"/>
	<path fill="#25B9C5" d="M108.687,178.957c3.367,1.057,6.917,1.789,10.675,2.564c0.63,0.13,1.267,0.261,1.912,0.396l1.346-7.198
		c1.463-7.825,2.836-15.174,4.214-22.524c0.521-2.78,1.038-5.561,1.555-8.342c1.431-7.699,2.912-15.66,4.459-23.482
		c0.113-0.572,0.096-0.914,0.069-1.056c-0.127-0.07-0.517-0.24-1.385-0.304c-0.627-0.047-1.245-0.07-1.837-0.07
		c-5.182,0-8.923,1.748-11.434,5.343c-9.707,13.895-14.565,29.59-14.44,46.649C103.853,175.253,105.49,177.952,108.687,178.957z"/>
	<path fill="#25B9C5" d="M176.023,106.997c6.934,0.012,12.508-5.549,12.513-12.482c0.004-6.92-5.531-12.479-12.439-12.492
		c-6.963-0.014-12.523,5.506-12.539,12.447C163.542,101.41,169.089,106.985,176.023,106.997z"/>
	<path fill="#25B9C5" d="M175,22.867C90.979,22.867,22.867,90.979,22.867,175S90.979,327.133,175,327.133
		c84.021,0,152.133-68.112,152.133-152.133S259.021,22.867,175,22.867z M172.244,75.311c0.779-0.154,1.568-0.311,2.353-0.311
		c0.967,0,1.933,0,2.899,0c1.163,0,2.344,0.301,3.487,0.592c7.629,1.944,13.423,8.44,14.49,16.244
		c1.254,9.172-4.045,17.962-12.721,21.122c-11.278,4.108-23.672-2.864-25.967-14.632C154.718,87.729,161.662,77.398,172.244,75.311z
		 M112.635,120.353c3.782-5.414,9.682-8.276,17.061-8.276c0.761,0,1.551,0.03,2.346,0.089c2.871,0.213,5.009,1.218,6.356,2.987
		c1.307,1.716,1.705,3.92,1.185,6.55c-1.54,7.784-3.016,15.725-4.444,23.405c-0.518,2.785-1.035,5.569-1.557,8.352
		c-1.378,7.348-2.751,14.697-4.214,22.521l-2.649,14.168l-3.474-0.783c-1.789-0.404-3.558-0.768-5.268-1.121
		c-3.933-0.811-7.648-1.577-11.346-2.738c-6.093-1.914-9.619-7.207-9.672-14.522C96.822,152.471,102.097,135.437,112.635,120.353z
		 M250.82,275.066c-1.495,0.293-2.942-0.68-3.237-2.173l-17.806-91.205c-0.151,0.02-0.3,0.044-0.453,0.056
		c-0.404,0.033-0.849,0.05-1.323,0.05c-5.468,0-15.958-2.282-25.213-4.295c-3.845-0.837-7.477-1.627-10.167-2.12
		c-4.844-0.888-8.151-3.143-10.407-7.093c-1.446-2.532-2.911-5.015-4.521-7.72c-0.337,1.729-0.66,3.387-0.984,5.045
		c-0.417,2.128-0.831,4.257-1.245,6.386c-1.154,5.938-2.347,12.079-3.599,18.113c-0.352,1.698-0.175,1.803,0.807,2.387
		c5.268,3.132,11.452,6.92,17.373,11.272c3.113,2.288,5.617,5.512,6.699,8.624c4.048,11.644,7.879,23.56,11.585,35.083
		c0.817,2.542,1.635,5.085,2.455,7.626c2.951,9.142-0.116,16.453-8.005,19.08c-1.458,0.485-2.918,0.732-4.34,0.732
		c-6.029,0-10.884-4.231-13.321-11.61c-1.295-3.919-2.586-7.907-3.834-11.764c-2.484-7.672-5.052-15.605-7.755-23.325
		c-0.584-1.667-1.999-3.517-3.605-4.714c-4.724-3.521-9.582-6.823-14.725-10.319c-0.522-0.355-1.046-0.711-1.572-1.069
		c-0.339,2.415-0.72,4.732-1.449,7.036c-0.188,0.595-0.374,1.196-0.561,1.8c-1.441,4.657-2.931,9.473-5.89,13.484
		c-6.193,8.395-13.012,16.475-19.606,24.289c-1.311,1.553-2.621,3.106-3.928,4.662c-3.203,3.815-7.212,7.714-12.659,7.714
		c-1.913,0-3.894-0.481-6.057-1.471c-5.817-2.662-7.866-7.54-5.621-13.384c0.725-1.887,1.805-3.789,3.401-5.987
		c1.431-1.97,2.854-3.946,4.279-5.921c5.019-6.963,10.21-14.164,15.626-21.048c3.075-3.908,4.323-8.301,5.25-13.694
		c0.679-3.954,1.355-7.909,2.031-11.865c3.445-20.168,7.006-41.023,11.072-61.447c1.195-6.001,4.823-11.582,8.567-16.72
		c2.839-3.896,6.815-5.956,11.497-5.956c2.334,0,4.768,0.524,7.235,1.558c7.149,2.996,12.218,7.321,15.498,13.221
		c4.554,8.191,9.595,16.736,14.982,25.396c0.598,0.961,1.999,2.006,3.06,2.283c3.472,0.904,10.717,2.533,17.109,3.97
		c3.743,0.841,6.468,1.457,8.463,1.917l-2.825-14.472c-0.292-1.493,0.68-2.942,2.173-3.235c1.495-0.293,2.942,0.68,3.237,2.173
		l3.358,17.199c4.02,1.982,6.238,6.113,5.559,10.515c-0.309,2.001-1.212,3.737-2.52,5.051l18.089,92.651
		C253.286,273.325,252.313,274.774,250.82,275.066z"/>
</g>
</svg>
