<?xml version="1.0" encoding="utf-8"?>
<!-- Generator: Adobe Illustrator 17.0.0, SVG Export Plug-In . SVG Version: 6.00 Build 0)  -->
<!DOCTYPE svg PUBLIC "-//W3C//DTD SVG 1.1//EN" "http://www.w3.org/Graphics/SVG/1.1/DTD/svg11.dtd">
<svg version="1.1" id="Layer_1" xmlns="http://www.w3.org/2000/svg" xmlns:xlink="http://www.w3.org/1999/xlink" x="0px" y="0px"
	 width="350px" height="350px" viewBox="0 0 350 350" enable-background="new 0 0 350 350" xml:space="preserve">
<g>
	<path fill="#25B9C5" d="M178.064,164.651c-0.91,1.588-2.219,2.917-3.783,3.873l4.727,1.789L178.064,164.651z"/>
	<path fill="#25B9C5" d="M184.993,214c3.729,0,7.007,1.072,11.007,2.641v-5.409c0-3.006-2.911-5.232-5.917-5.232h-34.801
		c-3.006,0-5.282,2.226-5.282,5.232v5.532c3-1.647,6.79-2.765,10.612-2.765H184.993z"/>
	<path fill="#25B9C5" d="M123.494,208.428c-8.677,0-16.429,5.18-19.791,13.052c0.824,0.66,1.679,1.273,2.557,1.845
		c-0.002,0.001,0.038,0.029,0.114,0.078c0.016,0.01,0.031,0.02,0.047,0.03c0.144,0.093,0.384,0.242,0.713,0.433
		c2.124,1.286,4.549,2.3,6.919,3.022c8.795,2.68,18.47,1.639,26.288-3.282c1.096-0.663,2.178-1.384,3.086-2.092
		C143.426,221.513,138.468,208.428,123.494,208.428z"/>
	<path fill="#25B9C5" d="M160.677,182.631l6.517-17.223c0.371-1.516-0.648-2.318-1.127-2.499c-0.217-0.082-1.763-0.448-2.499,1.127
		l-6.517,17.222c-0.525,1.453,0.648,2.318,1.127,2.499C158.394,183.84,159.728,184.427,160.677,182.631z"/>
	<path fill="#25B9C5" d="M149.207,193.412c1.881,1.026,3.661,2.295,5.291,3.686l2.177,1.901h11.888l1.233-5.438
		c0.608-2.66,1.83-5.138,3.525-7.214l-5.865-2.23c0,0-3.553,8.935-11.709,6.064c-4.578-1.612-6.835-6.811-5.117-11.351l3.455-9.131
		c-7.252-0.206-13.796-0.871-13.406-2.572c-1.025,4.462-5.126,30.47-6.362,36.576c3.263,1.345,6.243,3.282,8.785,5.709
		c0.519-3.49,2.506-6.507,5.313-8.4c-0.801-0.574-1.632-1.105-2.496-1.576c-1.664-0.908-2.277-2.993-1.369-4.657
		C145.458,193.117,147.543,192.504,149.207,193.412z"/>
	<path fill="#25B9C5" d="M128.359,125h0.062c7.147,0,12.79-6.053,12.777-13.242c-0.013-7.159-6.197-13.13-13.197-13.13V98.4
		l0.154,0.228c-7.174,0.004-12.941,5.832-12.955,12.992c-0.007,3.512,1.383,6.948,3.838,9.409
		C121.499,123.495,124.835,125,128.359,125z"/>
	<path fill="#25B9C5" d="M177.864,191.975c-0.009,0.013-0.018,0.025-0.027,0.037c-0.578,0.888-1.071,1.945-1.349,3.08L175.604,199
		h2.232l15.274,0.335c4.824,1.224,8.519,5.281,9.18,10.303c5.182-5.05,12.229-8.064,19.82-8.064c8.221,0,16.032,3.556,21.429,9.766
		c1.243,1.43,1.092,3.596-0.339,4.839c-1.43,1.244-3.598,1.09-4.842-0.34c-4.093-4.709-10.015-7.41-16.248-7.41
		c-14.391,0-19.712,13.115-19.712,13.115c1.712,1.363,3.545,2.539,5.475,3.512c2.099,1.058,5.021,1.966,7.441,2.545
		c8.167,1.954,16.777,0.47,23.869-3.994l-0.102-0.104c1.515-0.962,2.957-2.175,4.307-3.398c4.259-3.859,9.884-6.104,15.841-6.104
		H270v-7.056c0-2.825-0.834-5.614-2.239-8.065l-6.149-10.642c-1.984-3.46-5.184-6.058-8.968-7.317l-63.478-21.111
		c-1.607-0.534-2.782,0.26-3.211,0.627c-0.429,0.367-1.398,1.399-1.119,3.069l0.916,5.503l1.349,8.094l1.238,7.426l0.033,0.202
		c0,0-3.221,0.952-6.421,3.226C181.951,187.957,179.551,189.414,177.864,191.975z"/>
	<polygon fill="#25B9C5" points="169.886,177.688 179.639,181.379 180.75,180.751 180.315,178.145 171.041,174.636 	"/>
	<path fill="#25B9C5" d="M280.736,221H259.23c-4.249,0-8.237,1.545-11.231,4.258c-7.113,6.446-16.306,10.022-25.888,10.022
		c-9.581,0-18.775-3.589-25.888-10.034c-2.993-2.713-6.982-4.245-11.231-4.245h-24.38c-4.249,0-8.238,1.545-11.231,4.258
		c-7.113,6.446-16.306,10.022-25.887,10.022c-9.582,0-18.775-3.588-25.888-10.034C94.614,222.532,90.625,221,86.377,221h-9.132
		c-1.83,0-3.245,1.591-3.245,3.422v11.049l-0.039,0.105c0,1.83,1.451,3.425,3.282,3.425h201.988c2.214,0,4.098-1.688,4.48-3.868
		l1.504-8.646c0.232-1.326-0.132-2.756-0.998-3.786C283.351,221.669,282.082,221,280.736,221z"/>
	<path fill="#25B9C5" d="M222.111,251.81c5.536,0,10.761-2.81,14.693-5.81h-29.371C211.373,249,216.614,251.81,222.111,251.81z"/>
	<path fill="#25B9C5" d="M175,22.867C90.979,22.867,22.867,90.979,22.867,175S90.979,327.133,175,327.133
		S327.133,259.021,327.133,175S259.021,22.867,175,22.867z M128.336,92h0.091c10.978,0,19.9,9.022,19.888,19.999
		C148.302,123.027,139.378,132,128.422,132h-0.002c-5.397,0-10.457-2.262-14.249-6.069c-3.798-3.814-5.878-8.815-5.856-14.229
		C108.36,100.793,117.341,92,128.336,92z M290.472,236.383c-0.958,5.472-5.685,9.617-11.241,9.617H245.75
		c-5.237,8-14.092,12.674-23.639,12.674c-9.485,0-18.403-4.674-23.638-12.674h-51.34c-5.236,8-14.14,12.674-23.64,12.674
		c-9.601,0-18.358-4.674-23.641-12.674H77.243C71.628,246,67,241.086,67,235.47v-3.258c-5-2.3-9-7.725-9-13.816v-6.364
		C58,203.773,64.573,197,72.834,197H78v-59.789c0-4.685,3.815-8.496,8.5-8.496c4.685,0,8.5,3.811,8.5,8.496v26.198l1.895,2.013
		c0.188-0.809,0.478-1.62,0.666-2.429c1.036-4.448,2.003-8.93,3.209-13.331c4.034-14.721,20.828-20.558,33.323-11.861
		c5.242,3.649,10.889,6.736,16.372,10.032c0.55,0.331,1.298,0.474,1.952,0.48c5.191,0.052,10.423-0.204,15.603,0.162
		c2.614,0.185,5.196,0.757,7.284,2.238c0.655,0.465,1.263,1.02,1.806,1.68c1.203,1.461,1.955,3.393,2.221,5.386
		c0.563-0.947,1.285-1.813,2.157-2.558c2.738-2.342,6.415-3.061,9.833-1.924l63.467,21.11c5.387,1.792,9.908,5.49,12.733,10.415
		l6.262,10.642c2.001,3.488,3.217,7.458,3.217,11.48V214h3.735c3.379,0,6.564,1.603,8.737,4.19s3.086,6.126,2.504,9.454
		L290.472,236.383z"/>
	<path fill="#25B9C5" d="M98.098,217.146c4.75-9.527,14.52-15.642,25.396-15.642c1.285,0,2.552,0.122,3.799,0.289
		c1.482-8.194,4.93-30.03,5.725-33.503c1.082-4.725,1.087-4.725-3.021-7.096c-3.534-2.04-7.081-4.055-10.711-6.134
		c1.242-2.151,2.338-4.047,3.484-6.032c0.437,0.127,0.598,0.144,0.726,0.217c6.618,3.76,13.284,7.44,19.824,11.331
		c2.831,1.685,5.633,2.631,9,2.467c1.44-0.07,2.883-0.1,4.326-0.114l0.501-1.323c1.287-3.4,4.601-5.685,8.247-5.685
		c1.062,0,1.972,0.152,2.953,0.568c1.735,0.735,2.653,1.688,3.653,2.732c0-0.008,0-0.015,0-0.023c0-2.315-1.497-3.64-4.408-3.65
		c-5.486-0.02-10.898,0.019-16.384-0.017c-0.883-0.006-1.87-0.034-2.588-0.46c-6.217-3.691-12.545-7.207-18.495-11.296
		c-8.661-5.952-19.897-2.134-22.476,8.045c-1.494,5.898-2.761,11.852-4.135,17.78c-0.209,0.903-0.417,1.809-0.627,2.713l7.004,8.334
		c2.871,3.417,6.879,5.694,11.284,6.413l4.533,0.74c1.871,0.305,3.14,2.069,2.835,3.94c-0.305,1.871-2.069,3.139-3.94,2.835
		l-4.533-0.74c-6.025-0.983-11.507-4.099-15.434-8.772l-15.665-18.641c-0.851-1.012-2.044-0.771-2.458-0.62
		c-0.414,0.151-1.515,0.644-1.515,1.965V214h1.375C90.568,214,94.594,215.177,98.098,217.146z"/>
	<path fill="#25B9C5" d="M89,158.877v-21.665c0-0.885-1.116-1.632-2-1.632c-0.885,0-2,0.747-2,1.632v21.853
		C86,158.798,87,158.738,89,158.877z"/>
	<path fill="#25B9C5" d="M78,214v-10h-5.166c-4.476,0-7.834,3.558-7.834,8.033v6.364c0,2.185,0.749,4.09,2.209,5.573
		c0.177-5.462,4.53-9.97,10.034-9.97H78z"/>
	<path fill="#25B9C5" d="M123.494,251.81c5.506,0,10.742-2.81,14.681-5.81h-29.398C112.709,249,117.911,251.81,123.494,251.81z"/>
</g>
</svg>
