<?xml version="1.0" encoding="utf-8"?>
<!-- Generator: Adobe Illustrator 17.0.0, SVG Export Plug-In . SVG Version: 6.00 Build 0)  -->
<!DOCTYPE svg PUBLIC "-//W3C//DTD SVG 1.1//EN" "http://www.w3.org/Graphics/SVG/1.1/DTD/svg11.dtd">
<svg version="1.1" id="Layer_1" xmlns="http://www.w3.org/2000/svg" xmlns:xlink="http://www.w3.org/1999/xlink" x="0px" y="0px"
	 width="350px" height="350px" viewBox="0 0 350 350" enable-background="new 0 0 350 350" xml:space="preserve">
<g>
	<path fill="#25B9C5" d="M186.794,207.961c-3.714,4.931-7.43,9.862-11.136,14.799c-1.414,2.106-2.82,4.238-4.189,6.315l-1.385,2.1
		c-0.574,0.869-1.176,1.733-1.758,2.568c-1.486,2.133-2.89,4.147-3.861,6.237c-0.606,1.305-0.372,2.119,4.472,4.946l0.057,0.033
		c0.695,0.406,1.319,0.856,1.923,1.292c0.73,0.527,1.731,1.25,2.206,1.303c0.964,0.109,0.963,0.108,2.099-1.45
		c4.107-5.633,7.971-11.634,11.709-17.437c0.69-1.071,1.391-2.158,2.096-3.249c2.07-4.15,4.137-8.301,6.206-12.451
		c0.162-0.324,0.244-0.688,0.409-1.166c-2.854-1.425-5.632-2.814-8.342-4.168C187.044,207.796,186.879,207.848,186.794,207.961z"/>
	<path fill="#25B9C5" d="M123.127,191.918c-10.676,0.009-18.944-4.34-24.755-13.354c-0.402-0.624-1.371-1.206-2.101-1.237
		c-2.966-0.128-5.948-0.141-8.914-0.002c-9.64,0.451-18.187,9.142-18.559,18.777c-0.472,12.229,8.399,21.531,20.649,21.545
		c25.992,0.029,51.983-0.021,77.975,0.063c2.219,0.007,3.592-0.621,4.889-2.426c4.081-5.677,8.355-11.215,12.572-16.83
		c2.392,1.152,4.622,2.226,6.975,3.359c1.83-3.303,3.544-6.395,5.415-9.772c-1.113-0.056-1.844-0.124-2.575-0.124
		C170.842,191.91,146.985,191.898,123.127,191.918z"/>
	<path fill="#25B9C5" d="M182.355,128h0.062c7.147,0,12.792-5.842,12.779-13.03c-0.013-7.159-6.195-12.918-13.195-12.918v-0.229
		l0.152,0.229c-7.174,0.004-12.942,5.832-12.956,12.992c-0.007,3.512,1.382,6.736,3.838,9.197
		C175.495,126.707,178.831,128,182.355,128z"/>
	<path fill="#25B9C5" d="M187.014,171.955c1.082-4.725,1.088-4.845-3.021-7.217c-3.534-2.04-7.081-4.115-10.711-6.194
		c1.242-2.151,2.338-4.077,3.485-6.062c0.437,0.127,0.598,0.129,0.726,0.202c6.618,3.76,13.284,7.432,19.824,11.324
		c2.831,1.685,5.633,2.627,9,2.463c5.093-0.248,10.207-0.059,15.313-0.07c3.022-0.007,4.702-1.383,4.665-3.779
		c-0.036-2.315-1.646-3.64-4.557-3.651c-5.486-0.02-10.973,0.019-16.459-0.017c-0.883-0.006-1.908-0.034-2.625-0.46
		c-6.217-3.691-12.564-7.207-18.514-11.296c-8.661-5.952-19.906-2.134-22.485,8.045c-1.494,5.898-2.766,12.077-4.139,18.005
		c-0.885,3.817-1.773,7.75-2.677,11.75h29.247C185.083,180,186.047,176.181,187.014,171.955z"/>
	<path fill="#25B9C5" d="M175,22.867C90.979,22.867,22.867,90.979,22.867,175S90.979,327.133,175,327.133
		S327.133,259.021,327.133,175S259.021,22.867,175,22.867z M182.331,95h0.091c10.978,0,19.9,9.022,19.888,19.999
		C202.298,126.027,193.374,135,182.418,135h-0.002c-5.397,0-10.457-2.051-14.248-5.858c-3.798-3.814-5.878-8.92-5.856-14.335
		C162.356,103.899,171.337,95,182.331,95z M265.103,224.378c-6.632,0.75-13.392,0.452-20.095,0.475
		c-15.176,0.052-30.352,0.032-45.527-0.029c-0.574-0.002-1.049,0.057-1.458,0.202c-1.662,2.522-3.326,5.103-4.937,7.604
		c-3.794,5.891-7.717,11.982-11.948,17.786c-1.667,2.287-3.627,4.488-7.532,4.488c-0.412,0-0.845-0.024-1.302-0.076
		c-2.384-0.269-4.207-1.585-5.672-2.642c-0.484-0.349-0.94-0.679-1.329-0.905l-0.056-0.033c-3.598-2.099-11.084-6.469-7.423-14.353
		c1.24-2.669,2.895-5.044,4.495-7.34c0.582-0.835,1.131-1.624,1.654-2.416l1.086-1.647c-0.183-0.243-0.243-0.459-0.126-0.629
		c-12.028,0-23.539,0.002-35.049,0c-13.727-0.002-27.455,0.099-41.18-0.04c-15.49-0.156-27.538-12.828-27.117-28.278
		c0.389-14.247,12.176-26.077,26.43-26.451c4.192-0.11,8.389,0.023,12.582-0.06c1.251-0.025,1.909,0.35,2.408,1.521
		c3.827,9,10.689,13.281,20.446,13.169c7.922-0.091,15.845-0.018,23.961-0.018c1.431-6.175,2.83-12.234,4.242-18.291
		c1.036-4.448,1.952-8.93,3.158-13.331c4.034-14.721,20.803-20.558,33.297-11.861c5.242,3.649,10.876,6.736,16.359,10.032
		c0.55,0.331,1.291,0.473,1.946,0.48c3.965,0.04,7.934,0.093,11.894-0.056c0.751-0.028,1.743-0.778,2.156-1.472
		c2.133-3.587,4.114-7.264,6.281-11.149c2.128,1.183,4.084,2.27,6.221,3.458c-1.905,3.474-3.722,6.786-5.577,10.169
		c0.725,0.539,1.339,0.966,1.92,1.434c3.624,2.912,5.033,7.526,3.648,11.91c-1.322,4.186-5.192,7.208-9.695,7.54
		c-0.911,0.067-1.866,0.208-2.738,0.023c-3.799-0.807-5.877,1.071-7.244,4.469c-0.896,2.226-2.283,3.94-3.684,6.94
		c1.797,0,3.204,0,4.611,0c4.499,0,8.999-0.097,13.498-0.157c8.998-0.119,15.341-4.462,19.005-12.617
		c0.695-1.546,1.416-2.265,3.163-2.157c5.918,0.367,11.988-0.147,17.738,1.002c12.66,2.529,21.409,14.727,20.775,27.802
		C287.762,211.799,277.915,222.93,265.103,224.378z"/>
	<path fill="#25B9C5" d="M265.103,177.776c-3.784-0.665-7.738-0.439-11.615-0.438c-0.679,0-1.578,0.758-2.003,1.41
		c-5.646,8.668-13.631,13.051-23.943,13.153c-6.709,0.067-13.419-0.011-20.128,0.041c-0.746,0.006-1.877,0.214-2.173,0.716
		c-2.387,4.041-4.617,8.174-6.946,12.372c2.451,1.274,4.667,2.426,7.058,3.669c-1.441,2.96-2.82,5.795-4.287,8.809
		c0.631,0.069,0.987,0.142,1.344,0.142c19.747,0.004,39.495,0.084,59.241-0.033c10.102-0.06,18.732-8.324,19.519-18.294
		C281.992,188.941,275.17,179.544,265.103,177.776z"/>
	<path fill="#25B9C5" d="M201.81,183.823c1.855-3.212,3.624-6.474,5.705-10.233c-4.743,0.085-9.139,0.583-12.84-3.039
		c-1.148,4.999-2.172,9.456-3.25,14.151c3.222,0,6.103,0.04,8.981-0.039C200.891,184.651,201.566,184.246,201.81,183.823z"/>
</g>
</svg>
