<?xml version="1.0" encoding="utf-8"?>
<!-- Generator: Adobe Illustrator 17.0.0, SVG Export Plug-In . SVG Version: 6.00 Build 0)  -->
<!DOCTYPE svg PUBLIC "-//W3C//DTD SVG 1.1//EN" "http://www.w3.org/Graphics/SVG/1.1/DTD/svg11.dtd">
<svg version="1.1" id="Layer_1" xmlns="http://www.w3.org/2000/svg" xmlns:xlink="http://www.w3.org/1999/xlink" x="0px" y="0px"
	 width="350px" height="350px" viewBox="0 0 350 350" enable-background="new 0 0 350 350" xml:space="preserve">
<g>
	<path fill="#25B9C5" d="M141.716,164.696c0.97-0.572,2.197-2.043,2.542-3.071l0.031-0.089l10.241-27.62
		c0.454-1.224,0.473-2.502,0.05-3.418c-0.132-0.286-0.367-0.656-0.74-0.793c-0.115-0.042-0.228-0.062-0.357-0.062
		c-0.929,0-2.292,0.991-2.986,2.828l-9.449,25.035c-0.865,2.594-3.488,4.894-6.233,5.46l-10.284,3.194l1.593,4.664L141.716,164.696z
		"/>
	<path fill="#25B9C5" d="M134.95,233.027l1.738,2.557l12.752-0.248l-3.612-7.185c-0.75-1.506-2.494-3.677-3.809-4.743
		l-27.283-22.178c-1.835-1.49-2.212-4.27-0.84-6.197l0.266-0.378l-8.305-12.054l5.346-3.684l7.677,11.142l1.801,1.774
		c0.72,0.738,1.777,1.167,2.63,1.167h35.472c1.238,0,2.239-0.226,2.677-0.684c0.31-0.324,0.452-0.752,0.422-1.568
		c-0.066-1.806-3.571-1.748-4.273-1.748h-0.07l-25.8-0.703c-5.187-0.203-8.843-6.962-8.995-7.247l-4.827-14.148l-6.601-3.764
		c-1.018-0.674-1.668-0.781-1.966-0.781c-0.2,0-0.535-0.004-0.93,0.695l-18.325,32.933c-1.988,3.523-0.776,7.997,2.702,9.974
		l0.068,0.04l37.03,22.34C131.616,229.325,133.838,231.386,134.95,233.027z"/>
	<path fill="#25B9C5" d="M150.237,163.694c-0.888,2.589-3.29,5.398-5.71,6.675l-0.307,0.141l-15.859,6.232l0.591,2.111
		c1.021,1.518,2.385,2.841,2.913,3.002l25.783,0.585c0.011,0,0.021,0.001,0.031,0.001l-7.43-18.78L150.237,163.694z"/>
	<path fill="#25B9C5" d="M159.489,241.47l-18.979,0.369l-5.281,0.242c-23.077,1.756-31.701,6.053-34.782,8.459
		c-0.81,0.634-1.446,2.228-1.446,3.176v4.253c0,0.951,0.635,2.545,1.443,3.173c3.171,2.476,14.261,8.323,48.642,9.147
		c1.465,0.036,2.964,0.055,4.452,0.055c33.631,0,48.467-9.458,53.284-13.524c0.274-0.231,0.431-0.585,0.431-0.972
		c0-0.393-0.15-0.736-0.423-0.966C202.465,251.196,189.12,242.515,159.489,241.47z"/>
	<path fill="#25B9C5" d="M120.508,149.763c5.419,0,9.831-4.468,9.835-9.877c0.004-5.403-4.382-9.886-9.776-9.886h-0.02
		c-5.503,0-9.823,4.364-9.835,9.849c-0.006,2.639,1.006,5.146,2.85,7C115.405,148.702,117.872,149.759,120.508,149.763z"/>
	<path fill="#25B9C5" d="M252.36,99.756c-9.205-8.249-17.961-14.227-26.041-17.78c5.621,8.294,9.28,19.215,10.878,32.477
		c1.111,9.217,1.512,29.449-8.272,61.397c-0.698,2.276,0.278,5.181,1.97,5.865c2.09,0.845,4.118,1.273,6.028,1.273c0,0,0,0,0.001,0
		c0.236,0,0.469,0.012,0.701-0.001L237.63,183h0.096c6.173,0,9.517-5.388,9.55-5.438l0.083-0.133
		c17.718-24.865,13.425-55.872,10.757-68.048C257.469,106.428,254.779,101.928,252.36,99.756z"/>
	<path fill="#25B9C5" d="M201.609,83.543c-0.803-0.086-1.649-0.13-2.513-0.13c-0.883,0-1.802,0.046-2.731,0.135
		c-8.14,0.784-15.437,3.752-21.103,8.582c-4.61,3.929-7.927,8.933-9.099,13.727c-0.172,0.711-0.062,2.35,0.209,3.13
		c0.834,2.377,3.215,8.014,7.306,9.02c0.317-0.006,1.253-0.324,1.793-0.746c18.867-14.698,33.489-20.178,40.665-22.153
		C214.66,91.107,210.85,84.529,201.609,83.543z"/>
	<path fill="#25B9C5" d="M175,22.867C90.979,22.867,22.867,90.979,22.867,175S90.979,327.133,175,327.133
		c84.021,0,152.133-68.112,152.133-152.133S259.021,22.867,175,22.867z M117.376,123.989c0.433-0.086,0.873-0.15,1.299-0.211
		l0.104-0.015c0.174-0.026,0.347-0.051,0.521-0.078l2.405-0.004c0.354,0.059,0.653,0.109,0.952,0.158
		c0.646,0.106,1.312,0.216,1.96,0.381c6.301,1.606,11.127,7.026,12.01,13.488c1.032,7.548-3.401,14.915-10.542,17.517
		c-1.787,0.651-3.647,0.981-5.531,0.981c-7.782,0-14.506-5.521-15.99-13.126C102.848,134.284,108.596,125.72,117.376,123.989z
		 M210.901,261.656c-3.002,2.534-8.489,6.207-17.579,9.317c-11.052,3.781-24.437,5.698-39.783,5.698
		c-1.541,0-3.09-0.019-4.603-0.056c-33.212-0.797-46.657-6.14-52.219-10.482c-2.66-2.07-3.716-5.683-3.716-8.164v-4.253
		c0-2.473,1.055-6.082,3.715-8.162c5.846-4.563,16.836-7.696,32.822-9.314c-0.691-0.85-1.992-1.982-2.768-2.423l-0.09-0.041
		l-37.041-22.342c-6.466-3.702-8.739-12.023-5.059-18.545l18.323-32.935c1.412-2.499,3.761-3.932,6.447-3.932
		c1.765,0,3.567,0.592,5.358,1.76l5.474,3.104l13.124-4.074l0.22-0.04c0.56-0.095,1.388-0.844,1.526-1.279l0.053-0.154l9.475-25.102
		c1.563-4.139,5.141-6.921,8.905-6.921c0.873,0,1.727,0.152,2.54,0.451c1.879,0.689,3.407,2.139,4.303,4.082
		c1.127,2.447,1.177,5.46,0.135,8.266l-10.124,27.306l5.723-2.265l0.084,0.213l9.276,23.446c1.696,1.381,2.697,3.302,2.782,5.62
		c0.017,0.469,0.003,0.91-0.033,1.328l8.014,20.256l-5.883,2.327l-6.35-16.28c-1.433,0.746-3.167,0.935-5.14,0.935H123.31
		c-0.252,0-0.508,0.219-0.765,0.196l23.461,19.186c1.988,1.611,4.344,4.602,5.48,6.881l4.896,9.769l0.47,0.023
		c0.906,0.017,1.804,0.048,2.695,0.079c13.278,0.457,24.955,2.453,34.713,5.924c8.582,3.053,13.786,6.57,16.641,8.981
		c1.701,1.427,2.676,3.544,2.676,5.806C213.579,258.103,212.603,260.221,210.901,261.656z M220.479,100.33
		c-0.467,0.115-0.91,0.231-1.353,0.349l-0.113,0.022c-0.668,0.109-1.198,0.261-1.577,0.452
		c-17.178,5.126-32.683,17.206-37.778,21.177l-0.146,0.114c-1.256,0.982-3.552,2.13-5.885,2.13c-0.236,0-0.471-0.012-0.695-0.036
		c-0.26-0.028-0.518-0.072-0.765-0.133c-6.985-1.673-10.516-9.017-11.999-13.246c-0.69-1.979-0.858-4.926-0.391-6.854
		c2.875-11.755,15.353-25.312,35.957-27.297c2.281-0.219,4.513-0.219,6.572,0.001c14.326,1.529,19.161,12.835,20.574,17.624
		l0.349,1.783C223.299,97.5,223.03,99.409,220.479,100.33z M266.932,139.659c-1.127,15.909-5.9,29.88-14.188,41.528
		c-0.528,0.787-5.457,7.753-14.617,8.334c-0.4,0.025-0.806,0.038-1.209,0.038c-2.755,0-5.61-0.589-8.486-1.751
		c-5.347-2.162-7.312-8.924-5.792-13.883c5.572-18.192,8.247-33.697,8.177-47.401c-0.085-16.773-4.16-31.223-12.456-44.176
		c-0.092-0.143-0.222-0.32-0.374-0.527c-0.916-1.249-2.622-3.573-1.606-5.977c0.615-1.457,2.019-2.393,3.754-2.503
		c0.963-0.059,2.074,0.115,3.402,0.543c6.98,2.248,18.407,7.714,33.211,20.981c3.431,3.08,6.852,8.835,7.787,13.103
		C266.135,115.269,267.85,126.694,266.932,139.659z"/>
</g>
</svg>
