<?xml version="1.0" encoding="utf-8"?>
<!-- Generator: Adobe Illustrator 17.0.0, SVG Export Plug-In . SVG Version: 6.00 Build 0)  -->
<!DOCTYPE svg PUBLIC "-//W3C//DTD SVG 1.1//EN" "http://www.w3.org/Graphics/SVG/1.1/DTD/svg11.dtd">
<svg version="1.1" id="Layer_1" xmlns="http://www.w3.org/2000/svg" xmlns:xlink="http://www.w3.org/1999/xlink" x="0px" y="0px"
	 width="350px" height="350px" viewBox="0 0 350 350" enable-background="new 0 0 350 350" xml:space="preserve">
<g>
	<path fill="#25B9C5" d="M175,22.867C90.979,22.867,22.867,90.979,22.867,175S90.979,327.133,175,327.133
		c84.021,0,152.133-68.112,152.133-152.133S259.021,22.867,175,22.867z M157.939,67.234c0.778-0.154,1.568-0.234,2.353-0.234
		c0.966,0,1.933,0,2.899,0c1.163,0,2.344,0.224,3.487,0.515c7.629,1.944,13.423,8.401,14.49,16.205
		c1.254,9.172-4.045,17.943-12.72,21.103c-11.278,4.108-23.671-2.835-25.967-14.603C140.413,79.623,147.357,69.32,157.939,67.234z
		 M93.284,157.838c8.156-14.445,16.357-28.806,24.742-43.472c5.695-9.962,12.489-12.053,17.184-12.053
		c5.049,0,10.233,2.338,15.413,6.951c1.849,1.647,3.71,3.28,5.572,4.913c5.334,4.676,10.848,9.512,15.978,14.644
		c2.13,2.131,3.641,2.419,4.839,2.419c0.955,0,2.083-0.215,3.444-0.658c4.804-1.563,9.726-2.881,14.488-4.156
		c2.666-0.713,5.334-1.427,7.986-2.185c7.414-2.115,12.742,0.312,14.803,6.346c1.328,3.889,0.542,6.737-0.353,8.44
		c-1.465,2.794-4.267,4.792-8.324,5.936c-2.691,0.76-5.378,1.54-8.065,2.32c-8.273,2.403-16.827,4.888-25.439,6.711
		c-0.732,0.156-1.518,0.234-2.334,0.234c-4.205,0-8.53-2.006-11.175-3.885c-4.026-2.856-7.567-6.18-11.318-9.7
		c-0.527-0.495-1.059-0.994-1.596-1.496l-13.758,24.787c1.027,0.233,2.043,0.466,3.051,0.698c5.552,1.273,10.794,2.475,16.061,3.467
		c9.023,1.704,14.249,6.693,16.451,15.701c2.466,10.097,5.333,20.306,8.105,30.178c1.489,5.302,2.978,10.603,4.416,15.917
		c2.623,9.697-3.432,15.313-8.196,17.431c-1.383,0.615-2.899,0.622-4.292,0.622c-6.754,0-11.97-4.737-14.31-12.996l-1.58-5.543
		c-2.473-8.651-5.029-17.595-7.119-26.535c-0.779-3.336-1.922-4.396-5.556-5.156c-10.551-2.207-21.148-4.894-31.396-7.493
		l-4.327-1.096c-7.935-2.005-13.412-6.058-15.839-11.722C88.41,171.74,89.255,164.972,93.284,157.838z M109.377,283.273
		c-21.993,0-39.885-17.892-39.885-39.885c0-21.993,17.892-39.885,39.885-39.885c21.993,0,39.885,17.892,39.885,39.885
		C149.262,265.381,131.37,283.273,109.377,283.273z M280.5,274.217L280.497,278H147.072l6.047-6.339
		c0.281-0.289,0.57-0.676,0.876-1.02c0.779-0.875,1.661-1.897,2.807-2.736l3.333-2.455c9.261-6.78,18.838-13.799,28.45-20.458
		c1.575-1.091,3.95-1.772,6.201-1.772c1.668,0,3.073,0.37,4.177,1.102c4.168,2.766,8.238,4.109,12.44,4.109
		c3.168,0,6.369-0.754,9.783-2.306l0.341-0.155l0.339-0.077c-17.789-4.006-31.117-19.93-31.117-38.911
		c0-21.993,17.892-39.885,39.885-39.885c21.993,0,39.885,17.892,39.885,39.885c0,11.922-5.259,22.637-13.578,29.952
		c1.201-0.309,2.396-0.626,3.579-0.94c2.286-0.608,4.651-1.236,6.999-1.789c2.387-0.562,4.691-1.523,7.129-2.541l5.841-2.426
		l0.009,5.536C280.517,245.732,280.5,273.934,280.5,274.217z"/>
	<path fill="#25B9C5" d="M108.406,182.286l4.334,1.097c10.177,2.581,20.701,5.248,31.106,7.425
		c6.295,1.317,9.578,4.445,10.985,10.46c2.05,8.772,4.583,17.632,7.032,26.2l1.584,5.56c1.016,3.587,3.146,7.862,7.519,7.862
		c0.74,0,1.598,0.036,2.367-0.354c3.054-1.55,4.24-5.349,3.308-8.797c-1.432-5.292-2.916-10.573-4.398-15.853
		c-2.789-9.929-5.672-20.197-8.167-30.409c-1.525-6.242-4.683-9.267-10.902-10.44c-5.401-1.019-10.709-2.236-16.33-3.524
		c-2.497-0.574-5.048-1.158-7.683-1.743l-4.69-1.039l19.386-34.446l-9.237-9.238l4.991-4.991l9.72,9.721l1.293,1.161
		c1.712,1.537,3.342,3.065,4.931,4.556c3.569,3.35,6.941,6.514,10.574,9.092c2.141,1.521,5.055,2.582,7.089,2.582
		c0.325,0,0.618-0.026,0.871-0.08c8.356-1.77,16.783-4.218,24.933-6.586c2.705-0.786,5.408-1.57,8.117-2.335
		c2.058-0.58,3.476-1.441,3.991-2.422c0.364-0.693,0.338-1.663-0.079-2.88c-0.587-1.722-1.416-2.333-3.165-2.333
		c-0.855,0-1.871,0.167-3.021,0.495c-2.69,0.768-5.394,1.492-8.098,2.215c-4.672,1.25-9.503,2.543-14.129,4.049
		c-2.078,0.677-3.918,1.005-5.627,1.005c-3.598,0-6.814-1.468-9.832-4.487c-4.964-4.968-10.391-9.726-15.638-14.326
		c-1.876-1.646-3.753-3.291-5.615-4.951c-3.846-3.426-7.453-5.163-10.717-5.163c-4.112,0-7.833,2.859-11.058,8.498
		c-8.378,14.657-16.574,29.009-24.723,43.44c-2.905,5.145-3.631,9.75-2.104,13.319C98.853,178.193,102.685,180.841,108.406,182.286z
		"/>
	<path fill="#25B9C5" d="M109.377,210.462c-18.156,0-32.926,14.77-32.926,32.926c0,18.156,14.77,32.926,32.926,32.926
		c18.156,0,32.927-14.77,32.927-32.926C142.304,225.233,127.533,210.462,109.377,210.462z"/>
	<path fill="#25B9C5" d="M263.561,206.983c0-18.156-14.77-32.926-32.926-32.926c-18.156,0-32.926,14.77-32.926,32.926
		c0,18.156,14.771,32.926,32.926,32.926C248.79,239.909,263.561,225.139,263.561,206.983z"/>
	<path fill="#25B9C5" d="M161.718,98.842c6.934,0.012,12.508-5.549,12.513-12.482c0.004-6.92-5.531-12.479-12.439-12.492
		c-6.962-0.014-12.523,5.506-12.539,12.447C149.237,93.256,154.784,98.831,161.718,98.842z"/>
	<path fill="#25B9C5" d="M269.198,241.333c-2.247,0.529-4.56,1.144-6.797,1.738c-3.958,1.052-8.052,2.14-12.183,2.875
		c-6.134,1.091-11.656,2.156-17.131,4.148c-2.672,0.971-5.843,2.064-9.216,2.852c-4.209,1.862-8.402,2.806-12.467,2.806
		c-5.537,0-11.014-1.748-16.283-5.195c-0.07-0.009-0.181-0.019-0.335-0.019c-0.886,0-1.793,0.089-2.032,0.251
		c-9.104,6.306-18.211,13.21-27.045,19.21H273.18c0.004-6,0.009-20.52,0.003-30.087
		C271.902,240.376,270.581,241.007,269.198,241.333z"/>
</g>
</svg>
