<?xml version="1.0" encoding="utf-8"?>
<!-- Generator: Adobe Illustrator 17.0.0, SVG Export Plug-In . SVG Version: 6.00 Build 0)  -->
<!DOCTYPE svg PUBLIC "-//W3C//DTD SVG 1.1//EN" "http://www.w3.org/Graphics/SVG/1.1/DTD/svg11.dtd">
<svg version="1.1" id="Layer_1" xmlns="http://www.w3.org/2000/svg" xmlns:xlink="http://www.w3.org/1999/xlink" x="0px" y="0px"
	 width="350px" height="350px" viewBox="0 0 350 350" enable-background="new 0 0 350 350" xml:space="preserve">
<g>
	<path fill="#25B9C5" d="M153.422,151h17.334l-1.652-1.386c-2.977-2.414-5.503-5.335-7.509-8.591l-0.789-1.277l-0.554,1.395
		c-1.268,3.191-3.136,6.092-5.554,8.527L153.422,151z"/>
	<path fill="#25B9C5" d="M136.821,137.38c3.036,0,5.506-2.47,5.506-5.506s-2.47-5.506-5.506-5.506s-5.506,2.47-5.506,5.506
		S133.785,137.38,136.821,137.38z"/>
	<path fill="#25B9C5" d="M136.821,150.906c10.494,0,19.031-8.538,19.031-19.032c0-10.494-8.537-19.031-19.031-19.031
		s-19.031,8.537-19.031,19.031C117.79,142.368,126.327,150.906,136.821,150.906z M136.821,120.964c6.016,0,10.91,4.894,10.91,10.91
		s-4.895,10.911-10.91,10.911s-10.91-4.895-10.91-10.911S130.806,120.964,136.821,120.964z"/>
	<path fill="#25B9C5" d="M190.275,150.906c15.162,0,27.497-12.335,27.497-27.497s-12.335-27.497-27.497-27.497
		c-15.161,0-27.496,12.335-27.496,27.497S175.114,150.906,190.275,150.906z M190.275,107.412c8.821,0,15.998,7.176,15.998,15.998
		c0,8.821-7.177,15.997-15.998,15.997s-15.997-7.176-15.997-15.997C174.278,114.588,181.454,107.412,190.275,107.412z"/>
	<rect x="104" y="178" fill="#25B9C5" width="8" height="9"/>
	<path fill="#25B9C5" d="M190.275,133.235c5.418,0,9.825-4.408,9.825-9.826c0-5.417-4.407-9.825-9.825-9.825
		c-5.417,0-9.824,4.408-9.824,9.825C180.451,128.827,184.858,133.235,190.275,133.235z"/>
	<path fill="#25B9C5" d="M118,209h97v-52h-97V209z M198.027,192.224c-1.701,0-3.086-1.385-3.086-3.086s1.385-3.086,3.086-3.086
		s3.086,1.385,3.086,3.086S199.729,192.224,198.027,192.224z M198.027,172.399c2.253,0,4.086,1.833,4.086,4.086
		s-1.833,4.086-4.086,4.086s-4.086-1.833-4.086-4.086S195.774,172.399,198.027,172.399z M133,172.895
		c0-1.599,1.296-2.895,2.895-2.895h42.211c1.599,0,2.895,1.296,2.895,2.895v20.21c0,1.599-1.296,2.895-2.895,2.895h-42.211
		c-1.599,0-2.895-1.296-2.895-2.895V172.895z"/>
	<rect x="139" y="176" fill="#25B9C5" width="36" height="14"/>
	<path fill="#25B9C5" d="M175,22.867C90.979,22.867,22.867,90.979,22.867,175S90.979,327.133,175,327.133
		c84.021,0,152.133-68.112,152.133-152.133S259.021,22.867,175,22.867z M252,210.164c0,1.08-0.736,2.095-1.664,2.649
		c-0.468,0.28-1.176,0.429-1.744,0.429c-0.518,0-1.086-0.125-1.523-0.36L221,198.919v12.715c0,1.701-1.131,3.366-2.833,3.366
		h-46.542l21.387,40.887c0.381,0.729,0.455,1.424,0.208,2.212c-0.249,0.787-0.788,1.43-1.519,1.811
		c-0.438,0.229-0.931,0.351-1.423,0.351c-1.156,0-2.206-0.636-2.739-1.66l-21.004-40.287l-21.004,40.293
		c-0.533,1.024-1.583,1.67-2.739,1.67c-0.499,0-0.978-0.101-1.424-0.333c-0.729-0.381-1.269-0.988-1.518-1.775
		c-0.246-0.787-0.173-1.552,0.208-2.282L161.446,215h-46.542c-1.702,0-2.904-1.665-2.904-3.366V193h-10.657
		c-1.701,0-3.343-0.936-3.343-2.637v-15.101c0-1.702,1.642-3.263,3.343-3.263H112v-18.008c0-1.702,1.203-2.992,2.904-2.992h5.316
		l-1.276-1.331c-4.725-4.759-7.326-11.109-7.326-17.794c0-13.897,11.306-25.203,25.203-25.203c7.518,0,14.592,3.334,19.41,9.146
		l0.96,1.159l0.354-1.461c3.66-15.174,17.119-25.77,32.73-25.77c8.979,0,17.431,3.512,23.797,9.879
		c6.366,6.366,9.872,14.829,9.872,23.808c0,10.183-4.555,19.74-12.497,26.181L209.798,151h8.369c1.702,0,2.833,1.29,2.833,2.992
		v12.715l26.133-13.963c0.917-0.494,2.34-0.466,3.235,0.068c0.928,0.555,1.632,1.57,1.632,2.65V210.164z"/>
	<polygon fill="#25B9C5" points="221,191.909 246,204.998 246,160.627 221,173.716 	"/>
</g>
</svg>
