<?xml version="1.0" encoding="utf-8"?>
<!-- Generator: Adobe Illustrator 17.0.0, SVG Export Plug-In . SVG Version: 6.00 Build 0)  -->
<!DOCTYPE svg PUBLIC "-//W3C//DTD SVG 1.1//EN" "http://www.w3.org/Graphics/SVG/1.1/DTD/svg11.dtd">
<svg version="1.1" id="Layer_1" xmlns="http://www.w3.org/2000/svg" xmlns:xlink="http://www.w3.org/1999/xlink" x="0px" y="0px"
	 width="350px" height="350px" viewBox="0 0 350 350" enable-background="new 0 0 350 350" xml:space="preserve">
<g>
	<path fill="#25B9C5" d="M160,163.388l-0.094-0.123c-2.047-0.783-3.676-1.929-5.293-3.406L154,159.094v22.449l0.518-0.875
		c3.754-3.832,5.482-8.894,5.482-14.251V163.388z"/>
	<path fill="#25B9C5" d="M156.883,220c-3.292,0-6.464-1.014-9.174-2.889l-1.482-1.049l0.742,1.647
		c2.356,5.215,7.341,8.816,13.008,9.387l0.311,0.044l4.442-7.14H156.883z"/>
	<path fill="#25B9C5" d="M123,165.678l0.356,0.022c7.729,0.354,11.944,2.123,16.137,3.834c2.683,1.095,5.284,2.128,8.775,2.802
		l0.732,0.115V145h-26V165.678z"/>
	<path fill="#25B9C5" d="M161.599,245h1.177l1.687-13h-2.863c-5.797,0-10.965-2.338-14.959-6.576l-0.64-0.921v4.093
		C146,237.445,152.75,245,161.599,245z"/>
	<path fill="#25B9C5" d="M123,245h25.211l-0.777-1.042c-4.238-3.996-6.434-9.566-6.434-15.362v-24.805
		c0-6.875,2.859-13.533,7.846-18.269l0.154-0.147v-8.035l-0.517-0.068c-4.509-0.739-7.757-2.024-10.804-3.267
		c-3.937-1.606-7.577-3.124-14.309-3.469l-0.37-0.027V245z"/>
	<path fill="#25B9C5" d="M153.256,187.841c-4.896,3.886-7.705,9.699-7.705,15.95c0,5.863,4.397,10.712,10.229,11.278l0.218,0.021
		l15.774-14.123l-0.889-0.24c-7.007-1.896-13.162-6.545-16.889-12.752l-0.293-0.488L153.256,187.841z"/>
	<path fill="#25B9C5" d="M171.219,115.659l-3.217,0.045l2.94,0.936c7.236,2.217,12.059,9.046,12.059,16.609v57.253l13.565-12.011
		l-0.494-0.332c-4.265-2.189-7.071-6.516-7.071-11.291V133.54C189,123.68,181.079,115.659,171.219,115.659z"/>
	<polygon fill="#25B9C5" points="228.726,101 236.926,92 113.075,92 121.275,101 	"/>
	<path fill="#25B9C5" d="M153.862,131.81c-0.057,0.584,0.138,1.166,0.138,1.73V136h1.637c3.135,0,5.363,2.435,5.363,5.57v5.468
		c0,1.331-1.169,2.414-2.5,2.414s-2.5-1.083-2.5-2.414v-5.468c0-0.473,0.109-0.57-0.363-0.57H154v6.038
		c0,6.915,5.585,12.541,12.5,12.541s12.5-5.625,12.5-12.541v-13.79c0-6.915-5.697-12.54-12.612-12.54
		C160.019,120.708,154.593,125.477,153.862,131.81z M170.561,137c1.331,0,2.414,1.169,2.414,2.5s-1.083,2.5-2.414,2.5h-4.078
		c-1.331,0-2.414-1.169-2.414-2.5s1.083-2.5,2.414-2.5H170.561z"/>
	<path fill="#25B9C5" d="M176.3,196.785l0.306,0.019l2.394-1.979v-35.73l-1.027,0.765c-3.209,2.933-7.555,4.547-11.893,4.547
		c-0.127,0-0.268-0.004-0.393-0.009l-0.687-0.02v2.039c0,6.676-2.545,12.968-7.241,17.717l-0.221,0.266l0.203,0.326
		C161.52,191.612,168.487,196.12,176.3,196.785z"/>
	<polygon fill="#25B9C5" points="232,246.059 240,254.258 240,95.742 232,103.941 	"/>
	<polygon fill="#25B9C5" points="118,103.941 110,95.742 110,254.258 118,246.059 	"/>
	<polygon fill="#25B9C5" points="121.275,249 113.075,258 236.926,258 228.726,249 	"/>
	<path fill="#25B9C5" d="M181.686,219.236l0.331,0.293l27.732-22.792l0.251-0.149v-9.174c0-3.892-2.977-7.264-6.833-7.805
		l-0.298-0.063L163.198,215h5.869C173.539,215,178.031,216.544,181.686,219.236z"/>
	<path fill="#25B9C5" d="M227,105H123v35h25.73l-0.023-0.377c-0.029-3.139-0.072-7.848-0.02-8.311
		c1.124-11.485,11.064-20.481,22.675-20.481c12.521,0,22.637,10.187,22.637,22.709V140h33V105z"/>
	<path fill="#25B9C5" d="M175,22.867C90.979,22.867,22.867,90.979,22.867,175S90.979,327.133,175,327.133
		c84.021,0,152.133-68.112,152.133-152.133S259.021,22.867,175,22.867z M245,260.586c0,1.333-1.081,2.414-2.414,2.414H107.414
		c-1.333,0-2.414-1.081-2.414-2.414V90.414c0-1.333,1.081-2.414,2.414-2.414h135.172c1.333,0,2.414,1.081,2.414,2.414V260.586z"/>
	<path fill="#25B9C5" d="M182.069,226.255c-2.77-3.567-6.918-5.809-11.382-6.26l-0.311-0.073l-4.44,7.079h16.76L182.069,226.255z"/>
	<path fill="#25B9C5" d="M210,231.062v-28.221l-24.445,20.037l0.234,0.364c0.884,1.121,1.655,2.293,2.292,3.564L188.22,227h6.577
		c1.331,0,2.414,1.169,2.414,2.5s-1.083,2.5-2.414,2.5h-25.464l-1.688,13h28.635C203.77,245,210,238.551,210,231.062z"/>
	<path fill="#25B9C5" d="M227,170.451l-0.34-0.022c-7.73-0.354-11.931-2.124-16.126-3.835c-4.219-1.722-8.241-3.348-15.95-3.527
		L194,163.055v3.813c0,4.333,3.752,7.859,8.086,7.859c6.995,0,12.914,5.691,12.914,12.688v43.646c0,4.763-1.979,9.464-5.291,12.914
		L208.742,245H227V170.451z"/>
	<path fill="#25B9C5" d="M227,145h-33v13.228l0.522,0.01c8.69,0.182,13.335,2.064,17.795,3.885
		c3.937,1.607,7.577,3.125,14.314,3.471l0.37,0.027V145z"/>
</g>
</svg>
