<?xml version="1.0" encoding="utf-8"?>
<!-- Generator: Adobe Illustrator 17.0.0, SVG Export Plug-In . SVG Version: 6.00 Build 0)  -->
<!DOCTYPE svg PUBLIC "-//W3C//DTD SVG 1.1//EN" "http://www.w3.org/Graphics/SVG/1.1/DTD/svg11.dtd">
<svg version="1.1" id="Layer_1" xmlns="http://www.w3.org/2000/svg" xmlns:xlink="http://www.w3.org/1999/xlink" x="0px" y="0px"
	 width="350px" height="350px" viewBox="0 0 350 350" enable-background="new 0 0 350 350" xml:space="preserve">
<g>
	<path fill="#25B9C5" d="M271.94,138.093l0.027,0.421l-25.084,1.604l-0.624-9.851c-0.017-0.275,4.105-0.995,4.497-1.063
		c4.723-0.824,14.171-1.823,13.739-8.557c0-0.003-0.058-0.905-0.058-0.905c-0.193-3.043-2.832-5.407-5.912-5.203l-26.912,1.72
		c-1.484,0.095-2.843,0.762-3.826,1.879s-1.472,2.549-1.376,4.033l0.058,0.904c0.353,4.884,11.315,10.067,11.315,10.067
		l-41.793,3.211c-0.068,0.004-0.122,0.031-0.167,0.082c-0.044,0.05-0.064,0.107-0.059,0.173l0.152,2.38
		c12.092-0.485,14.481,3.635,17.408,7.372l27.853-1.78l-4.624,10.294c-0.326,0.727,0,1.585,0.727,1.912
		c0.721,0.324,1.595-0.023,1.912-0.727l0.092-0.175l7.672-12.639l25.063-1.574l0.029,0.417l16.818,0.99l-0.405-7.189L271.94,138.093
		z"/>
	<path fill="#25B9C5" d="M143.793,123.361c6.934,0.012,12.508-5.549,12.513-12.482c0.004-6.92-5.531-12.479-12.439-12.492
		c-6.963-0.014-12.523,5.506-12.539,12.447C131.312,117.774,136.86,123.349,143.793,123.361z"/>
	<path fill="#25B9C5" d="M196.327,153.233c-0.854,0.045-1.859,0.264-2.99,0.652c-2.646,0.907-5.309,1.771-7.971,2.635
		c-4.6,1.493-9.357,3.036-13.899,4.781c-2.039,0.784-3.86,1.208-5.567,1.298c-3.593,0.188-6.882-1.11-10.053-3.968
		c-5.217-4.702-10.884-9.17-16.365-13.49c-1.96-1.546-3.919-3.09-5.866-4.651c-4.02-3.22-7.712-4.767-10.972-4.596
		c-4.107,0.215-7.673,3.264-10.599,9.064c-3.937,7.809-20.459,48.646-20.459,48.646c0.499,2.122,2.215,9.795,9.402,42.859
		l0.783,3.537H67.386c-3.491,0-6.332,3.008-6.332,6.5s2.841,6.5,6.332,6.5h42.242c1.925,0,3.722-0.957,4.931-2.457
		c1.208-1.499,1.666-3.486,1.257-5.368l-9.627-44.311l24.619,9.317l17.519,38.896c1.022,2.269,3.29,3.732,5.779,3.732
		c0.896,0,1.768-0.19,2.594-0.562c1.543-0.695,2.722-1.949,3.322-3.531c0.599-1.582,0.547-3.302-0.147-4.845l-18.782-41.704
		c-0.802-1.781-2.349-3.073-4.243-3.545l-17.358-6.996l13.155-31.439l-8.654-7.795l4.723-5.244l11.298,10.176
		c1.482,1.212,2.912,2.417,4.311,3.598c3.739,3.159,7.272,6.142,11.034,8.527c2.218,1.407,5.183,2.315,7.214,2.208
		c0.325-0.017,0.615-0.058,0.866-0.125c8.252-2.204,16.54-5.089,24.556-7.879c2.66-0.926,5.319-1.851,7.984-2.756
		c2.025-0.687,3.396-1.62,3.859-2.627c0.327-0.711,0.25-1.678-0.229-2.872C198.933,153.708,198.074,153.141,196.327,153.233z"/>
	<path fill="#25B9C5" d="M175,22.867C90.979,22.867,22.867,90.979,22.867,175S90.979,327.133,175,327.133
		c84.021,0,152.133-68.112,152.133-152.133S259.021,22.867,175,22.867z M140.015,91.493c0.778-0.153,1.568-0.493,2.353-0.493
		c0.966,0,1.933,0,2.899,0c1.163,0,2.344,0.483,3.487,0.774c7.629,1.944,13.423,8.531,14.49,16.335
		c1.254,9.172-4.045,18.007-12.72,21.168c-11.278,4.108-23.671-2.932-25.967-14.7C122.489,103.98,129.433,93.58,140.015,91.493z
		 M206.25,161.217c-1.317,2.867-4.01,5.008-8.002,6.363c-2.648,0.899-5.29,1.819-7.933,2.738
		c-8.136,2.832-16.549,5.761-25.054,8.031c-0.723,0.194-1.504,0.313-2.319,0.356c-4.199,0.22-8.623-1.558-11.363-3.296
		c-4.169-2.642-7.88-5.777-11.809-9.095c-0.434-0.367-0.874-0.738-1.314-1.109l-0.106,0.117l-0.317-0.286l-9.795,23.043l10.05,4.769
		c3.674,0.916,6.673,3.421,8.229,6.874l18.782,41.705c1.347,2.991,1.448,6.327,0.286,9.395c-1.163,3.068-3.45,5.499-6.441,6.846
		c-1.599,0.72-3.294,1.086-5.037,1.086c-4.825,0-9.222-2.843-11.204-7.241l-16.335-36.27l-12.534-6.316l7.595,34.937
		c0.793,3.649-0.095,7.531-2.438,10.438c-2.344,2.908-5.829,4.699-9.562,4.699H67.386c-6.772,0-12.281-5.728-12.281-12.5
		S60.614,234,67.386,234H94.39c-6.185-28-9.245-38.723-9.778-41.089c0,0,15.699-40.408,21.131-51.178
		c5.167-10.246,11.842-12.665,16.531-12.91c5.042-0.264,10.342,1.812,15.755,6.148c1.932,1.549,3.876,3.087,5.821,4.622
		c5.571,4.391,11.33,8.936,16.721,13.792c2.238,2.017,3.762,2.227,4.958,2.165c0.954-0.05,2.069-0.323,3.405-0.836
		c4.716-1.812,9.562-3.385,14.251-4.907c2.625-0.851,5.252-1.703,7.861-2.599c7.293-2.499,12.741-0.354,15.115,5.564
		C207.691,156.585,207.055,159.47,206.25,161.217z M290.262,149.113C290.261,149.113,290.262,149.113,290.262,149.113
		c-0.102,0-0.205-0.004-0.307-0.01l-21.326-1.255l-18.002,1.151l-6.057,9.608c-1.214,2.59-3.83,4.258-6.698,4.258
		c-1.048,0-2.066-0.219-3.028-0.65c-1.8-0.808-3.178-2.271-3.881-4.119c-0.702-1.848-0.644-3.857,0.165-5.658l0.579-1.289
		l-21.425,1.37l-1.756-0.711c-0.124-0.428-0.274-0.869-0.456-1.324c-2.373-5.918-7.821-8.063-15.115-5.564
		c-0.26,0.089-0.522,0.174-0.782,0.262l-1.869-0.757l-0.476-7.432c-0.106-1.649,0.438-3.242,1.531-4.484
		c1.092-1.241,2.602-1.983,4.253-2.09l26.49-1.869c-0.91-1.541-1.451-3.278-1.568-5.091l-0.058-0.904
		c-0.196-3.071,0.816-6.034,2.847-8.343c2.033-2.31,4.843-3.69,7.912-3.887l26.912-1.72c0.249-0.015,0.491-0.023,0.73-0.023
		c6.062,0,11.113,4.736,11.499,10.782l0.058,0.905c0.196,3.071-0.816,6.034-2.847,8.343c-2.033,2.31-4.843,3.69-7.913,3.886
		l-7.185,0.459l0.045,0.84l15.271-0.976l21.004-3.048c1.311-0.244,2.689,0.097,3.72,0.898c1.051,0.815,1.704,2.047,1.789,3.378
		l0.57,10.127c0.084,1.317-0.407,2.621-1.349,3.567C292.657,148.626,291.494,149.113,290.262,149.113z"/>
</g>
</svg>
