<?xml version="1.0" encoding="utf-8"?>
<!-- Generator: Adobe Illustrator 17.0.0, SVG Export Plug-In . SVG Version: 6.00 Build 0)  -->
<!DOCTYPE svg PUBLIC "-//W3C//DTD SVG 1.1//EN" "http://www.w3.org/Graphics/SVG/1.1/DTD/svg11.dtd">
<svg version="1.1" id="Layer_1" xmlns="http://www.w3.org/2000/svg" xmlns:xlink="http://www.w3.org/1999/xlink" x="0px" y="0px"
	 width="350px" height="350px" viewBox="0 0 350 350" enable-background="new 0 0 350 350" xml:space="preserve">
<g>
	<path fill="#25B9C5" d="M173.947,109.046c6.934,0.012,12.508-5.549,12.513-12.482c0.004-6.92-5.531-12.479-12.439-12.492
		c-6.963-0.014-12.523,5.506-12.539,12.447C161.466,103.459,167.013,109.034,173.947,109.046z"/>
	<path fill="#25B9C5" d="M192.459,179.133l-16.5-11.335l-4.617-35.955c-0.039-0.293-0.119-0.607-0.241-0.943l-0.071-0.216
		c-0.604-2.083-2.087-3.769-4.068-4.624c-0.912-0.394-1.873-0.593-2.856-0.593c-2.885,0-5.486,1.711-6.628,4.358l-18.633,43.153
		c-1.066,2.467-1.846,6.209-1.846,8.9v71.838c0,3.978,3.244,7.214,7.223,7.214c3.978,0,7.217-3.236,7.217-7.214l0.004-71.895
		c0.026-0.806,0.331-2.302,0.614-3.022l0.043-0.104c0,0,2.841-8.942,4.605-11.487c0.651-0.938,1.456-1.684,2.484-2.091
		c2.152-0.851,4.422-0.374,5.857,1.505c0.355,0.464,3.994,8.672,5.952,10.017c1.703,1.17,3.412,2.377,5.064,3.545
		c1.695,1.197,3.447,2.435,5.177,3.621c3.672,2.517,6.67,3.886,8.928,4.084l-0.01-0.072c0.878-0.133,1.751-0.277,2.619-0.437
		c0.129-0.08,0.255-0.165,0.377-0.264c0.994-0.813,1.528-2.167,1.463-3.714C194.544,181.632,193.716,179.997,192.459,179.133z"/>
	<path fill="#25B9C5" d="M175,22.867C90.979,22.867,22.867,90.979,22.867,175S90.979,327.133,175,327.133
		c84.021,0,152.133-68.112,152.133-152.133S259.021,22.867,175,22.867z M170.168,77.336c0.778-0.153,1.568-0.336,2.353-0.336
		c0.966,0,1.933,0,2.899,0c1.163,0,2.343,0.325,3.487,0.617c7.629,1.944,13.423,8.452,14.49,16.256
		c1.254,9.172-4.045,17.968-12.72,21.128c-11.278,4.108-23.671-2.873-25.967-14.641C152.642,89.763,159.587,79.422,170.168,77.336z
		 M211.276,272.872c-4.812,0.665-8.97-0.404-9.58-2.397c-0.113-0.242-0.194-0.505-0.232-0.784l-10.346-74.925
		c-0.132,0.004-0.261,0.016-0.393,0.016h-0.001c-5.03,0-10.036-3.033-13.364-5.314c-1.771-1.214-3.543-2.466-5.258-3.677
		c-1.633-1.154-3.323-2.348-4.99-3.493c-2.486-1.709-4.607-4.199-6.07-6.994l-2.727,5.963c-0.054,0.206-0.314,0.605-0.314,0.807
		v71.643c0,7.762-6.236,14.078-13.999,14.078c-7.764,0-14.001-6.315-14.001-14.078v-71.838c0-3.626,1.04-8.297,2.477-11.622
		l18.663-43.15c2.227-5.165,7.321-8.503,12.949-8.503c1.924,0,3.81,0.389,5.586,1.156c3.834,1.656,6.715,4.898,7.912,8.906
		c0.269,0.761,0.458,1.53,0.559,2.289l4.229,32.926l4.947,3.398l-1.727-12.509c-0.207-1.507,0.846-2.899,2.353-3.107
		c1.509-0.208,2.899,0.846,3.109,2.353l2.414,17.486l2.875,1.975c3.047,2.093,4.966,5.697,5.13,9.639
		c0.156,3.726-1.293,7.121-3.976,9.315c-0.333,0.272-0.681,0.515-1.037,0.74l10.04,72.713c1.109-0.379,2.357-0.679,3.689-0.861
		c5.027-0.694,9.344,0.499,9.643,2.67C220.132,269.859,216.301,272.18,211.276,272.872z M215.36,249.974
		c-2.48,0-4.491-2.011-4.491-4.491s2.011-4.491,4.491-4.491c2.48,0,4.491,2.011,4.491,4.491S217.84,249.974,215.36,249.974z"/>
</g>
</svg>
