<?xml version="1.0" encoding="utf-8"?>
<!-- Generator: Adobe Illustrator 17.0.0, SVG Export Plug-In . SVG Version: 6.00 Build 0)  -->
<!DOCTYPE svg PUBLIC "-//W3C//DTD SVG 1.1//EN" "http://www.w3.org/Graphics/SVG/1.1/DTD/svg11.dtd">
<svg version="1.1" id="Layer_1" xmlns="http://www.w3.org/2000/svg" xmlns:xlink="http://www.w3.org/1999/xlink" x="0px" y="0px"
	 width="350px" height="350px" viewBox="0 0 350 350" enable-background="new 0 0 350 350" xml:space="preserve">
<g>
	<path fill="#25B9C5" d="M138.064,201.046L121.1,226.87l30.92,0.249C151.099,216.616,145.851,207.325,138.064,201.046z"/>
	<path fill="#25B9C5" d="M159.693,186.803c-1.418-0.892-2.832-1.799-4.243-2.712l7.084,14.167c0.165-1.692,0.341-3.3,0.527-4.779
		C163.487,190.126,162.794,188.753,159.693,186.803z"/>
	<path fill="#25B9C5" d="M142.065,194.957c9.757,7.621,16.297,19.168,17.238,32.22l1.068,0.009l0.167-2.144
		c0.282-3.658,0.568-8.148,0.887-12.792l-13.28-26.552L142.065,194.957z"/>
	<path fill="#25B9C5" d="M215.649,105.691c6.934,0.012,12.508-5.549,12.513-12.482c0.004-6.92-5.531-12.479-12.439-12.492
		c-6.962-0.014-12.523,5.506-12.539,12.447C203.168,100.104,208.715,105.679,215.649,105.691z"/>
	<path fill="#25B9C5" d="M111.215,232.151c-0.626-1.171-0.562-2.59,0.167-3.7l20.625-31.396c-5.169-2.735-11.046-4.317-17.29-4.367
		C93.9,192.52,76.827,209.32,76.66,230.138c-0.168,20.82,16.632,37.89,37.45,38.058c19.594,0.158,35.866-14.718,37.852-33.825
		l-37.577-0.303C113.058,234.057,111.841,233.322,111.215,232.151z"/>
	<path fill="#25B9C5" d="M190.861,183.726c-0.628,5.393-1.162,12.137-1.649,18.786l13.225-20.057l-11.451-0.092
		C190.955,182.811,190.915,183.264,190.861,183.726z"/>
	<path fill="#25B9C5" d="M200.145,157.586l4.572,0.037c-0.524-0.113-1.056-0.267-1.589-0.465c-3.889-1.443-7.201-4.783-9.002-7.43
		c-2.743-4.024-4.877-8.314-7.139-12.857c-0.249-0.502-0.503-1.01-0.757-1.518l-0.141,0.065l-0.176-0.383l-21.124,18.108
		c0.87,0.568,1.73,1.132,2.582,1.693c4.698,3.083,9.135,5.995,13.665,8.721c5.036,3.033,8.116,6.798,9.371,11.55l12.717,0.102
		l-6.246-12.361c-0.569-1.128-0.509-2.473,0.156-3.549C197.701,158.225,198.88,157.575,200.145,157.586z"/>
	<path fill="#25B9C5" d="M175,22.867C90.979,22.867,22.867,90.979,22.867,175S90.979,327.133,175,327.133
		S327.133,259.021,327.133,175S259.021,22.867,175,22.867z M211.87,74.158c0.778-0.154,1.568-0.158,2.353-0.158
		c0.966,0,1.933,0,2.899,0c1.163,0,2.343,0.148,3.487,0.439c7.629,1.944,13.423,8.364,14.49,16.167
		c1.254,9.172-4.045,17.924-12.721,21.084c-11.278,4.108-23.671-2.806-25.967-14.574C194.344,86.519,201.289,76.245,211.87,74.158z
		 M235.223,276.423c-24.816-0.2-44.843-20.552-44.643-45.368c0.13-16.096,8.741-30.175,21.547-38.029l-3.46-6.845l-20.538,31.148
		c-0.044,0.568-0.089,1.126-0.133,1.668c-0.443,5.415-0.886,10.821-1.38,16.23C185.888,243.196,180.84,247,176.22,248h0.095
		c2.001,0,3.613,1.66,3.597,3.664c-0.016,2.002-1.654,3.617-3.655,3.601l-13.054-0.103c-2.001-0.016-3.613-1.652-3.597-3.654
		c0.016-2.004,1.654-3.612,3.655-3.596l2.38,0.019l0.526-1.665c-3.633-2.404-5.755-6.518-6.1-11.83l-0.824-0.007
		c-2.039,23.113-21.597,41.208-45.192,41.018c-24.816-0.2-44.843-20.552-44.643-45.368c0.2-24.816,20.552-44.841,45.368-44.641
		c7.69,0.062,14.921,2.061,21.235,5.527l8.384-12.765l-1.097-2.194c-3.394-2.309-6.755-4.626-10.072-6.914l-3.626-2.499
		c-6.651-4.578-10.326-10.207-10.625-16.28c-0.3-6.075,2.805-12.045,8.98-17.261c12.503-10.561,25.018-21.028,37.808-31.714
		c8.687-7.259,15.689-6.861,20.032-5.249c4.669,1.733,8.662,5.676,11.87,11.72c1.144,2.158,2.305,4.307,3.467,6.458
		c3.328,6.156,6.768,12.523,9.751,19.03c1.238,2.703,2.537,3.488,3.645,3.899c0.884,0.328,2,0.516,3.411,0.574
		c4.98,0.203,9.985,0.674,14.827,1.129c2.711,0.256,5.423,0.511,8.137,0.721c7.584,0.589,11.679,4.663,11.514,10.951
		c-0.107,4.053-1.812,6.417-3.224,7.685c-2.315,2.082-5.592,2.967-9.737,2.633c-2.75-0.221-5.503-0.422-8.256-0.623
		c-0.177-0.013-0.355-0.026-0.532-0.039c2.421,1.994,3.959,5.021,3.932,8.394c-0.048,5.934-4.914,10.723-10.848,10.675l-3.805-0.031
		c-2.002-0.016-3.613-1.654-3.597-3.655c0.016-2.002,1.653-3.613,3.655-3.597l3.805,0.031c1.936,0.016,3.522-1.547,3.538-3.482
		c0.016-1.933-1.546-3.521-3.482-3.536l-17.834-0.144l12.561,24.86c5.353-2.192,11.217-3.38,17.354-3.33
		c24.816,0.2,44.843,20.549,44.643,45.366C280.392,256.596,260.039,276.623,235.223,276.423z"/>
	<path fill="#25B9C5" d="M235.89,193.664c-4.941-0.04-9.667,0.888-14.01,2.585l16.944,33.535c0.902,1.787,0.185,3.967-1.602,4.871
		c-0.533,0.269-1.103,0.395-1.663,0.39c-1.312-0.011-2.575-0.739-3.209-1.992l-16.937-33.523
		c-10.469,6.643-17.474,18.291-17.581,31.583c-0.168,20.82,16.632,37.89,37.45,38.058s37.891-16.63,38.058-37.45
		C273.508,210.904,256.707,193.831,235.89,193.664z"/>
	<path fill="#25B9C5" d="M231.706,153.323c2.772,0.202,5.541,0.404,8.31,0.627c2.103,0.17,3.709-0.139,4.523-0.87
		c0.575-0.516,0.883-1.422,0.916-2.691c0.048-1.794-0.509-2.644-2.127-3.244c-0.791-0.293-1.788-0.488-2.964-0.579
		c-2.751-0.213-5.502-0.472-8.251-0.731c-4.751-0.447-9.663-0.91-14.459-1.106c-2.154-0.087-3.969-0.416-5.55-1.002
		c-3.328-1.235-5.799-3.697-7.554-7.526c-2.886-6.3-6.271-12.563-9.545-18.619c-1.17-2.167-2.341-4.332-3.494-6.507
		c-2.381-4.489-5.121-7.334-8.14-8.455c-3.804-1.412-8.227-0.045-13.145,4.064c-12.781,10.681-25.288,21.141-37.78,31.691
		c-4.453,3.762-6.706,7.771-6.518,11.597c0.189,3.822,2.823,7.587,7.619,10.887l3.632,2.503
		c8.527,5.881,17.345,11.961,26.221,17.546c5.37,3.379,7.334,7.399,6.569,13.445c-1.115,8.817-1.815,22.458-2.49,31.224
		l-0.444,5.686c-0.292,3.667,0.211,8.352,4.255,9.853c0.685,0.254,1.466,0.582,2.311,0.485c3.357-0.385,5.758-3.492,6.079-7.001
		c0.492-5.387,0.933-10.78,1.375-16.172c0.829-10.141,1.688-25.204,2.886-35.506c0.733-6.297-1.15-10.179-6.499-13.399
		c-4.646-2.797-9.137-5.745-13.894-8.865c-2.112-1.388-4.272-2.804-6.508-4.249l-3.981-2.572l29.871-25.302l-4.789-10.445
		l6.329-2.903l6.253,13.636c0.868,1.677,1.693,3.328,2.497,4.945c2.151,4.324,4.184,8.408,6.659,12.039
		c1.458,2.141,3.789,4.124,5.67,4.822c0.301,0.112,0.58,0.188,0.833,0.225C214.72,152.086,223.355,152.714,231.706,153.323z"/>
</g>
</svg>
