<?xml version="1.0" encoding="utf-8"?>
<!-- Generator: Adobe Illustrator 17.0.0, SVG Export Plug-In . SVG Version: 6.00 Build 0)  -->
<!DOCTYPE svg PUBLIC "-//W3C//DTD SVG 1.1//EN" "http://www.w3.org/Graphics/SVG/1.1/DTD/svg11.dtd">
<svg version="1.1" id="Layer_1" xmlns="http://www.w3.org/2000/svg" xmlns:xlink="http://www.w3.org/1999/xlink" x="0px" y="0px"
	 width="350px" height="350px" viewBox="0 0 350 350" enable-background="new 0 0 350 350" xml:space="preserve">
<g>
	<path fill="#25B9C5" d="M125.993,234.232c2.699-8.19,9.262-27.875,13.06-39.322l1.816-5.412l4.388,4.852
		c3.988,4.381,7.977,8.778,11.971,13.155c0.922,1.01,1.587,2.222,1.586,3.586c-0.011,8.59,0.187,17.189,0.187,25.781v8.762
		c0,0.276-0.381,0.366-0.343,0.366h11.729c0.103,0,0.148-1.041,0.145-1.998c-0.027-9.277,0.22-18.59,0.223-27.714l0.246-8.381
		v-0.103c0-0.387-0.258-1.035-0.006-1.787c0.3-0.902-0.014-1.916-0.809-3.618c-0.142-0.304-0.643-0.782-1.068-1.245
		c-0.29-0.315-0.607-0.627-0.897-0.977c-5.452-6.584-10.013-12.072-14.742-17.758c-0.574-0.69-1.444-2.152-0.769-4.194
		c2.642-7.997,5.272-15.997,7.906-23.997l4.29-13.035c0.054-0.162,0.111-0.324,0.182-0.518l1.741-4.838l11.57,9.887
		c0.758,0.648,1.51,1.301,2.262,1.954l0.201,0.174c1.931,1.676,3.92,3.403,5.918,4.989c0.78,0.618,1.855,1.129,2.992,1.67
		l0.529,0.252c5.64,2.709,11.378,5.441,16.928,8.083l6.164,2.936c0.193,0.092,0.543,0.273,0.725,0.368l6.698,2.896
		c0.096,0.009,0.188,0.017,0.256,0.021c0.084,0.005,0.166,0.007,0.247,0.007c1.963,0,3.706-1.33,4.238-3.235
		c0.567-2.028-0.336-4.124-2.196-5.097c-0.673-0.353-1.962-1.013-2.24-1.156l-7.166-3.341c-0.111-0.047-0.327-0.141-0.408-0.179
		l-5.073-2.445c-4.332-2.088-8.664-4.176-12.992-6.272c-0.214-0.103-0.433-0.201-0.653-0.299l-0.037-0.017
		c-0.887-0.396-1.989-0.888-2.978-1.716c-4.058-3.398-8.173-6.882-12.384-10.45l-4.185-3.548l5.055-2.134
		c0.347-0.146,0.694-0.292,1.042-0.433c0.919-0.375,3.175-1.167,6.78-2.428l0.063-0.022c4.05-1.418,10.171-3.56,11.299-4.115
		c2.384-1.175,7.592-3.776,12.629-6.291c18.967-9.472,19.132-9.523,19.622-9.675c2.271-0.705,3.614-2.983,3.06-5.186
		c-0.516-2.049-2.243-3.426-4.299-3.426c-0.324,0-0.652,0.034-0.975,0.1c-1.349,0.277-2.68,0.908-4.156,1.643
		c-6.648,3.311-13.301,6.61-19.953,9.909l-8.191,4.064c-0.113,0.056-0.223,0.12-0.332,0.184l-0.058,0.034
		c-0.453,0.261-1.073,0.62-1.852,0.85c-2.412,0.714-7.32,2.26-12.516,3.897l-0.124,0.039c-5.847,1.842-11.893,3.747-14.696,4.561
		l-1.769,0.519l-1.048-0.388c-0.093-0.034-0.187-0.068-0.283-0.097c-0.532-0.165-1.05-0.351-1.507-0.514
		c-0.837-0.3-1.628-0.583-2.299-0.682c-3.302-0.486-6.708-0.477-11.109,0.029c-2.003,0.23-2.742,1.123-3.162,1.876
		c-0.246,0.442-0.551,1.015-0.729,1.531c-2.801,8.14-5.485,15.997-8.452,24.688c-0.683,2.002-1.364,4.043-2.022,6.017l-0.05,0.15
		c-1.473,4.422-2.996,8.994-4.665,13.479c-0.966,2.597-0.942,5.499,0.069,8.172l0.424,1.123l-0.013,0.038l-5.413,16.238
		c-5.726,17.178-12.367,36.86-16.445,49.067c-0.282,0.845-0.45,1.862-0.525,1.862h13.4L125.993,234.232z"/>
	<path fill="#25B9C5" d="M187.377,160.847l-0.498-0.238c-1.363-0.648-2.909-1.382-4.295-2.481c-2.109-1.673-4.149-3.444-6.123-5.156
		l-0.027-0.024c-0.806-0.7-1.614-1.401-2.425-2.095l-4.046-3.458l-2.945,8.944c-2.507,7.615-5.006,15.206-7.512,22.795
		c4.741,5.703,9.596,11.565,13.879,16.739c0.185,0.222,0.414,0.471,0.635,0.713c0.7,0.76,1.439,1.705,2.023,2.955
		c1.001,2.142,1.955,5.015,0.955,8.256v0.114l0.129,7.867c-0.004,9.302,0.057,18.921,0.085,28.446
		c0.002,0.877,0.007,1.599-0.054,2.261l6.749,0.005l1.983,0.003l15.851-20.891l7.838-54.16l-5.535-2.636
		C198.579,166.204,192.928,163.513,187.377,160.847z"/>
	<path fill="#25B9C5" d="M161.568,104.749c6.495,0,11.766-5.267,11.77-11.741c0.004-6.466-5.051-11.737-11.507-11.75L162,81.144
		v0.114c-7,0-11.948,5.142-11.963,11.707c-0.007,3.158,1.107,6.118,3.314,8.336C155.558,103.52,158.414,104.744,161.568,104.749z"/>
	<polygon fill="#25B9C5" points="194.37,246 209.108,246 204.037,233.256 	"/>
	<path fill="#25B9C5" d="M270.383,253.788c-1.023-0.37-2.197-0.661-3.695-0.662c-8.531-0.006-17.061-0.126-25.592-0.126h-9.788
		c-2.053,0-6.744,0.12-12.208,0.122l-0.212,0.061l-11.506-0.092c-7.337,0.003-13.833-0.09-15.415-0.09h-0.37
		c-1.335,0-2.67,0.119-4.004,0.118l-6.816,0.061l0.005,0.025l-76.046,0.017c-1.807,0-3.614,0.006-5.421,0.004
		c-1.807-0.001-3.612,0.001-5.418,0.001c-3.865,0-6.828,0.01-9.609,0.026c-1.333,0.008-2.633,0.126-3.863,0.348
		c-2.327,0.42-2.516,1.891-2.579,2.375c-0.186,1.435,0.148,2.724,1.021,3.939c0.77,1.071,1.458,1.321,1.971,1.42
		c0.587,0.112,1.174,0.228,1.761,0.344l0.153,0.03c1.61,0.32,3.131,0.621,4.677,0.858c1.261,0.193,2.521,0.388,3.782,0.584
		l0.047,0.007c5.344,0.828,10.87,1.683,16.3,2.373c4.838,0.614,10.167,1.13,16.292,1.575c8.857,0.643,16.02,1.067,22.544,1.333
		c7.206,0.294,14.821,0.471,23.282,0.542c2.081,0.017,4.174,0.026,6.222,0.026c5.465,0,11.017-0.062,16.503-0.184
		c6.766-0.151,13.664-0.471,20.334-0.781l1.11-0.052c3.765-0.174,7.839-0.438,12.455-0.806c3.683-0.293,8.54-0.699,13.447-1.249
		c5.943-0.665,10.776-1.283,15.212-1.945c2.31-0.345,4.664-0.774,6.94-1.189c2.072-0.378,4.42-0.807,6.701-1.156
		c2.111-0.323,2.606-1.07,2.906-1.744c0.204-0.46,0.358-1.079,0.521-1.734l-0.08-0.085c0.051-0.202,0.054-0.405,0.054-0.606v-1.053
		c0-0.097,0.046-0.239,0.023-0.396C271.808,254.607,271.299,254.118,270.383,253.788z"/>
	<path fill="#25B9C5" d="M175,22.867C90.979,22.867,22.867,90.979,22.867,175S90.979,327.133,175,327.133
		S327.133,259.021,327.133,175S259.021,22.867,175,22.867z M157.957,74.601c0.507-0.1,1.026-0.175,1.528-0.248
		c0.237-0.034,0.474-0.068,0.711-0.105l2.771-0.001c0.369,0.066,0.719,0.124,1.07,0.181c0.749,0.123,1.523,0.251,2.27,0.441
		c7.264,1.851,12.829,8.101,13.847,15.551c1.19,8.704-3.922,17.199-12.155,20.199c-2.061,0.75-4.206,1.131-6.377,1.131
		c0,0-0.001,0-0.001,0c-8.973,0-16.726-6.365-18.437-15.135C141.206,86.473,147.833,76.597,157.957,74.601z M278.82,258.858
		c-0.089,0.311-0.168,0.626-0.246,0.942c-0.216,0.866-0.461,1.846-0.9,2.836c-1.404,3.164-4.113,5.075-8.052,5.678
		c-2.172,0.333-4.379,0.735-6.513,1.125c-2.35,0.428-4.753,0.867-7.154,1.224c-4.537,0.677-9.449,1.305-15.458,1.977
		c-4.971,0.557-9.912,0.971-13.662,1.27c-4.692,0.374-8.839,0.642-12.678,0.82l-1.037,0.048c-6.736,0.313-13.698,0.637-20.569,0.791
		c-5.536,0.123-11.139,0.185-16.653,0.185c-2.064,0-4.177-0.009-6.279-0.026c-8.528-0.071-16.215-0.25-23.499-0.547
		c-6.592-0.269-13.823-0.696-22.76-1.346c-6.24-0.453-11.687-0.98-16.652-1.611c-5.534-0.703-11.118-1.568-16.519-2.404
		l-0.749-0.116c-1.012-0.156-2.023-0.313-3.035-0.468c-1.679-0.257-3.338-0.586-4.943-0.903l-0.057-0.011
		c-0.612-0.122-1.223-0.243-1.836-0.36c-2.484-0.475-4.564-1.857-6.182-4.108c-1.866-2.595-2.639-5.618-2.235-8.742
		c0.554-4.292,3.572-7.339,8.074-8.15c1.613-0.291,3.302-0.444,5.02-0.454c3.551-0.021,7.046-0.266,9.694-0.266
		c1.489,0,2.98-0.24,4.47-0.24h3.456c0.099-1,0.53-2.9,0.898-4.001c4.078-12.206,10.719-32.007,16.444-49.184l4.688-14.002
		c-1.172-3.855-1.058-7.988,0.322-11.697c1.633-4.391,3.135-8.885,4.588-13.245c0.739-2.219,1.407-4.211,2.088-6.206
		c2.832-8.296,5.61-16.424,8.458-24.7c0.351-1.02,0.834-1.935,1.215-2.62c1.693-3.036,4.559-4.867,8.287-5.294
		c5.006-0.574,8.961-0.574,12.858-0.001c1.332,0.195,2.533,0.625,3.591,1.004c0.261,0.094,0.512,0.183,0.755,0.266
		c2.865-0.842,8.678-2.674,14.302-4.445c5.244-1.653,10.198-3.213,12.7-3.954c0.028-0.013,0.266-0.151,0.393-0.224
		c0.241-0.139,0.501-0.287,0.764-0.417l8.193-4.064c6.65-3.298,13.3-6.596,19.944-9.905c1.836-0.914,3.662-1.772,5.807-2.213
		c0.772-0.158,1.557-0.238,2.332-0.238c5.121,0,9.58,3.507,10.844,8.528c1.407,5.59-1.858,11.399-7.433,13.223
		c-0.694,0.318-3.865,1.884-9.683,4.783l-4.905,33.906l4.823,2.25c0.004,0.002,1.574,0.806,2.35,1.212
		c4.71,2.465,6.999,7.766,5.567,12.893c-1.344,4.809-5.761,8.168-10.741,8.168c-0.207,0-0.416-0.006-0.625-0.017
		c-0.242-0.014-0.626-0.051-1.141-0.11l-0.509-0.065l-3.053-1.324l-7.556,52.232l7.941,19.954l3.377-0.246
		c5.186-0.002,9.588-0.247,11.56-0.247h9.9c8.495,0,16.991,0.246,25.485,0.252c2.268,0.002,4.224,0.433,5.98,1.066
		c3.42,1.233,5.534,3.888,6.112,7.56l0.018,0.098c0.018,0.068,0.036,0.152,0.053,0.221l0.093,0.386l0.003,2.815L278.82,258.858z"/>
	<path fill="#25B9C5" d="M151.938,211.655c-2.743-3.008-5.52-6.015-8.26-9.025c-3.75,11.31-8.938,26.69-11.259,33.734L129.154,246
		h22.721c-0.015,0,0.124-0.095,0.124-0.367v-9.84C152,227.747,151.928,219.701,151.938,211.655z"/>
	<path fill="#25B9C5" d="M190.348,132.695l-0.149,0.052c-0.687,0.24-1.364,0.477-2.006,0.702c3.088,2.612,5.617,4.743,7.95,6.696
		c0.266,0.222,0.836,0.477,1.388,0.724c0.305,0.136,0.6,0.268,0.888,0.408c4.439,2.149,8.881,4.29,13.324,6.431l1.189,0.573
		l3.938-27.218l-1.746,0.872c-5.289,2.641-10.285,5.136-12.662,6.307C201.068,128.929,196.562,130.521,190.348,132.695z"/>
</g>
</svg>
