<?xml version="1.0" encoding="utf-8"?>
<!-- Generator: Adobe Illustrator 17.0.0, SVG Export Plug-In . SVG Version: 6.00 Build 0)  -->
<!DOCTYPE svg PUBLIC "-//W3C//DTD SVG 1.1//EN" "http://www.w3.org/Graphics/SVG/1.1/DTD/svg11.dtd">
<svg version="1.1" id="Layer_1" xmlns="http://www.w3.org/2000/svg" xmlns:xlink="http://www.w3.org/1999/xlink" x="0px" y="0px"
	 width="350px" height="350px" viewBox="0 0 350 350" enable-background="new 0 0 350 350" xml:space="preserve">
<g>
	<path fill="#25B9C5" d="M80.571,236.972c-0.372,1.58,0.573,3.055,2.245,3.509c1.942,0.526,3.881,1.061,5.82,1.597
		c4.465,1.232,9.081,2.506,13.654,3.645c8.424,2.099,15.485,3.736,22.222,5.152c9.009,1.894,18.296,3.632,26.293,5.112
		c4.87,0.902,10.143,1.773,16.594,2.742c5.748,0.864,11.846,1.703,18.127,2.496c5.37,0.678,11.077,1.328,17.446,1.99
		c4.736,0.492,9.471,0.912,14.072,1.25l0.244,0.018c6.457,0.474,13.134,0.964,19.714,1.271c5.134,0.24,10.354,0.371,15.403,0.499
		c1.889,0.048,3.778,0.095,5.666,0.148c0.474,0.013,0.948,0.018,1.423,0.018c0.4,0,0.8-0.206,1.199-0.21
		c0.397-0.003,0.793-0.209,1.189-0.209h3.29l-2.979-1.193c-1.6-0.75-176.471-29.835-178.157-30.092
		C82.326,234.45,80.933,235.428,80.571,236.972z"/>
	<path fill="#25B9C5" d="M106.949,254.235l-3.255-0.812c-3.011-0.751-6.022-1.502-9.03-2.264c-0.163-0.041-0.31-0.061-0.45-0.061
		c-0.774,0-1.107,0.611-1.216,0.812c-0.949,1.738-1.909,3.469-2.87,5.2l-1.204,2.173c-0.067,0.121-0.125,0.247-0.196,0.405
		l-0.69,1.48l1.349-0.199c5.083-0.749,11.734-2.02,18.106-5.222l1.501-0.754l-1.769-0.663
		C107.1,254.281,107.026,254.254,106.949,254.235z"/>
	<path fill="#25B9C5" d="M158.047,217.349c-6.86,3.691-13.861,7.398-20.631,10.983c-3.044,1.612-6.088,3.223-9.129,4.839
		c-0.126,0.067-0.247,0.147-0.404,0.255c-0.067,0.046-0.144,0.099-0.234,0.159l-1.554,1.024l51.977,8.787l-0.199-1.037
		c-0.012-0.062-0.02-0.114-0.027-0.159c-0.018-0.116-0.037-0.237-0.087-0.371c-0.887-2.37-0.932-4.978-0.142-8.207
		c2.012-8.225,4.131-16.571,6.182-24.642l0.498-1.96c0.233-0.917,0.001-1.542-0.775-2.088c-3.221-2.267-6.482-4.592-9.636-6.841
		l-3.231-2.303c-0.536-0.382-1.045-0.761-1.614-1.162l-2.039-1.46v1.803c0,0.212-0.026,0.381-0.029,0.55
		c-0.012,0.936-0.017,1.874-0.009,2.811c0.018,2.011,0.03,4.091-0.169,6.095C166.221,210.19,163.274,214.537,158.047,217.349z"/>
	<path fill="#25B9C5" d="M228.285,114.851c6.934,0.012,12.508-5.549,12.513-12.482c0.004-6.92-5.531-12.479-12.439-12.492
		c-6.962-0.014-12.523,5.506-12.539,12.447C215.804,109.264,221.351,114.839,228.285,114.851z"/>
	<path fill="#25B9C5" d="M248.265,160.32l-7.472-5.999c-13.198-10.595-26.395-21.19-39.6-31.778
		c-0.411-0.329-0.917-0.593-1.426-0.744c-2.171-0.643-4.347-1.269-6.523-1.895l-9.576-2.761c-8.019-2.313-16.038-4.626-24.057-6.934
		c-0.868-0.25-1.576-0.701-2.165-1.38l-3.815-4.402c-6.573-7.587-15.576-17.978-16.902-19.359c-0.992-1.033-2.306-1.601-3.7-1.601
		c-1.158,0-2.25,0.391-3.158,1.132c-2.037,1.661-2.413,4.658-0.856,6.824c0.653,0.908,1.369,1.772,1.919,2.423
		c6.581,7.788,13.169,15.57,19.762,23.346c0.167,0.197,0.519,0.552,0.998,0.721c1.337,0.471,2.681,0.924,4.025,1.378l1.341,0.454
		c1.855,0.629,3.711,1.256,5.566,1.883c4.369,1.476,8.887,3.002,13.317,4.539c1.333,0.463,2.237,1.45,2.479,2.709
		c0.247,1.281-0.258,2.611-1.351,3.559l-0.148,0.128c-1.057,0.917-2.113,1.833-3.166,2.755l-6.451,5.647
		c-5.693,4.982-11.58,10.133-17.353,15.219c-3.07,2.704-4.624,6.206-4.621,10.406c0.005,5.852,0.004,11.703,0.004,17.554
		c0,4.774,0,9.548,0.002,14.322c0.001,1.71-0.708,2.855-2.231,3.604l-2.861,1.406c-3.666,1.801-7.332,3.603-10.991,5.418
		l-3.58,1.774c-5.065,2.509-10.303,5.103-15.43,7.706c-1.688,0.858-2.929,2.323-3.496,4.128c-0.588,1.872-0.39,3.874,0.556,5.636
		c1.236,2.302,3.636,3.733,6.263,3.732c1.167,0,2.339-0.289,3.39-0.837c0.422-0.22,7.679-4.058,9.47-5.009l8.453-4.484
		c6.556-3.477,13.111-6.954,19.661-10.443c3.48-1.854,5.24-4.825,5.23-8.832c-0.008-3.044-0.006-6.087-0.005-9.132
		c0.001-2.246,0.002-4.492,0-6.738c-0.001-1.583,0.638-2.684,1.954-3.366c1.306-0.674,2.57-0.568,3.818,0.318l3.235,2.299
		c7.302,5.19,14.604,10.379,21.899,15.578c1.355,0.965,1.855,2.339,1.449,3.972c-1.489,5.971-2.984,11.941-4.478,17.911
		l-1.296,5.178c-0.057,0.229-0.153,0.593-0.272,1.05c-0.453,1.734-1.297,4.961-1.692,7.037c-0.561,2.953,0.727,5.869,3.28,7.428
		c1.13,0.69,2.435,1.055,3.773,1.055c1.607,0,3.174-0.535,4.41-1.506c1.744-1.369,2.378-3.278,2.77-4.965
		c2.187-9.417,4.453-18.983,6.645-28.234l1.411-5.955c0.072-0.305,0.423-1.863,0.517-2.335c0.373-1.886-0.195-3.501-1.69-4.799
		c-0.493-0.429-1.009-0.833-1.508-1.224l-7.398-5.846c-4.92-3.889-9.841-7.777-14.756-11.673c-0.969-0.768-1.522-1.777-1.558-2.843
		c-0.035-1.049,0.436-2.072,1.326-2.881c9.162-8.324,18.331-16.64,27.504-24.951c1.602-1.45,3.334-1.515,5.063-0.195
		c6.391,4.882,12.78,9.766,19.17,14.651l14.423,11.026c2.523,1.931,5.133,3.928,7.715,5.874c0.892,0.672,1.942,1.027,3.037,1.027
		c1.559,0,2.998-0.715,3.947-1.962c1.637-2.15,1.336-5.09-0.702-6.839C260.732,170.347,250.942,162.47,248.265,160.32z"/>
	<path fill="#25B9C5" d="M175,22.867C90.979,22.867,22.867,90.979,22.867,175S90.979,327.133,175,327.133
		S327.133,259.021,327.133,175S259.021,22.867,175,22.867z M224.507,83.238c0.778-0.154,1.568-0.238,2.353-0.238
		c0.966,0,1.933,0,2.899,0c1.163,0,2.344,0.228,3.487,0.519c7.629,1.944,13.423,8.404,14.49,16.207
		c1.254,9.172-4.045,17.944-12.721,21.104c-11.278,4.108-23.671-2.836-25.967-14.604C206.98,95.629,213.925,85.325,224.507,83.238z
		 M271,176.186c0,0.102-0.252,0.236-0.276,0.396c-0.567,3.758-2.539,6.687-5.706,8.707c-2.58,1.646-5.054,2.223-7.486,1.768
		c-2.071-0.854-31.936-21.854-44.515-31.477c-0.137-0.106-0.289-0.206-0.432-0.306l-0.668-0.474l-22.421,20.326l0.761,0.683
		c0.115,0.106,0.214,0.196,0.319,0.279c1.191,0.942,2.388,1.878,3.584,2.814c2.655,2.076,5.399,4.224,8.036,6.404
		c0.925,0.765,1.89,1.501,2.822,2.212c2.091,1.595,4.253,3.243,6.018,5.272c3.079,3.539,4.031,7.197,2.995,11.512
		c-2.781,11.599-5.526,23.211-8.158,34.515l-0.011,0.048c-0.562,2.413-1.093,4.692-2.455,6.668
		c-0.142,0.206-0.281,0.414-0.429,0.635l-0.867,1.288l7.387,1.25c4.118,0.697,8.211,1.39,12.305,2.081
		c3.242,0.547,6.485,1.092,9.728,1.636c3.785,0.636,7.57,1.272,11.354,1.911c2.017,0.34,4.094,0.643,6.102,0.936
		c4.522,0.661,9.198,1.343,13.604,2.505c3.091,0.815,6.769,2.958,7.824,6.528c1.195,4.046-1.852,7.141-5.401,8.413
		c-1.486,0.533-2.943,0.639-4.114,0.724c-0.25,0.018-0.483,0.035-0.698,0.055c-1.603,0.147-2.882,0.216-4.027,0.216
		c-1.183,0-2.084-0.075-3.037-0.155c-0.996-0.083-2.026-0.17-3.51-0.193c-3.2-0.051-6.418-0.146-9.564-0.282
		c-7.219-0.314-14.969-0.787-23.693-1.446c-6.493-0.49-12.933-1.123-20.607-1.922c-5.764-0.6-10.563-1.188-15.104-1.851
		l-0.791-0.115c-9.712-1.417-19.756-2.882-29.592-4.543c-5.805-0.98-11.683-2.153-17.367-3.288
		c-2.239-0.447-4.478-0.893-6.718-1.331c-1.219-0.237-2.456-0.501-3.653-0.756c-1.047-0.223-2.093-0.447-3.143-0.656
		c-0.095-0.019-0.2-0.03-0.308-0.03c-0.397,0-0.797,0.13-1.071,0.348c-5.327,4.248-11.868,7.336-19.997,9.441
		c-4.787,1.24-9.936,2.03-15.304,2.351l-0.184,0.011c-0.364,0.022-0.708,0.044-1.05,0.044c-0.673,0-1.174-0.087-1.626-0.282
		c-0.967-0.417-1.681-1.173-2.01-2.13c-0.336-0.977-0.232-2.045,0.294-3.006c1.378-2.518,2.773-5.027,4.167-7.536l4.119-7.432
		l-0.891-0.251c-0.478-0.135-0.949-0.271-1.417-0.406c-1.026-0.296-1.995-0.577-2.996-0.832c-4.827-1.234-7.958-5.368-7.793-10.286
		c0.178-5.277,5.024-9.875,10.222-9.563c1.708,0.104,3.454,0.401,5.143,0.689c0.552,0.094,1.104,0.189,1.656,0.276
		c1.899,0.303,3.828,0.633,5.694,0.953c0.893,0.153,1.786,0.306,2.681,0.457c0.107,0.018,0.216,0.027,0.334,0.035l1.13,0.102
		l-0.209-0.975c-0.067-0.315-0.14-0.625-0.213-0.933c-0.151-0.64-0.293-1.245-0.375-1.852c-0.538-4.02,0.67-7.555,3.695-10.805
		c0.248-0.267,0.522-0.517,0.811-0.781c0.161-0.147,0.322-0.294,0.479-0.445c0.205-0.196,0.407-0.396,0.609-0.596
		c0.422-0.418,0.821-0.813,1.249-1.178c0.398-0.339,0.927-0.764,1.499-1.047c10.028-4.964,19.935-9.848,29.447-14.514
		c0.868-0.426,0.985-1.066,0.984-1.636c-0.004-3.296,0-6.593,0.003-9.889c0.007-6.012,0.014-12.227-0.032-18.342
		c-0.041-5.377,1.804-10.07,5.806-14.771c2.466-2.896,5.412-5.377,8.262-7.775c1.52-1.28,3.092-2.603,4.583-3.98
		c2.148-1.986,4.413-3.927,6.604-5.804c0.999-0.856,1.998-1.712,2.99-2.575l1.406-1.248l-2.975-1.018
		c-1.296-0.444-2.564-0.879-3.833-1.308c-1.208-0.409-2.416-0.815-3.625-1.22c-3.081-1.035-6.267-2.105-9.379-3.207
		c-0.62-0.22-1.289-0.689-1.747-1.226c-7.586-8.901-23.605-29.752-23.966-30.275c-1.314-2.255-1.689-4.451-1.146-6.711
		c0.667-2.771,1.98-4.974,4.016-6.735c1.855-1.605,4.009-2.717,6.401-3.021c0.153-0.019,0.278-0.255,0.372-0.255h2.231
		c0.083,0,0.19,0.227,0.321,0.244c3.099,0.417,5.924,2.1,8.397,4.859c4.327,4.828,8.645,9.851,12.82,14.673
		c2.042,2.358,4.084,4.735,6.136,7.085c0.332,0.38,0.83,0.704,1.332,0.851c6.453,1.885,12.913,3.754,19.372,5.618l5.851,1.689
		c4.762,1.371,9.687,2.789,14.521,4.212c0.653,0.192,1.34,0.555,1.935,1.022c2.397,1.879,4.81,3.823,7.144,5.704l13.722,11.026
		c12.429,9.985,25.28,20.31,37.943,30.438c1.914,1.531,3.443,3.103,4.676,4.806c1.028,1.419,1.705,2.817,2.069,4.272
		c0.079,0.314,0.309,0.631,0.378,0.947l0.247,0.388V176.186z"/>
</g>
</svg>
