<?xml version="1.0" encoding="utf-8"?>
<!-- Generator: Adobe Illustrator 17.0.0, SVG Export Plug-In . SVG Version: 6.00 Build 0)  -->
<!DOCTYPE svg PUBLIC "-//W3C//DTD SVG 1.1//EN" "http://www.w3.org/Graphics/SVG/1.1/DTD/svg11.dtd">
<svg version="1.1" id="Layer_1" xmlns="http://www.w3.org/2000/svg" xmlns:xlink="http://www.w3.org/1999/xlink" x="0px" y="0px"
	 width="350px" height="350px" viewBox="0 0 350 350" enable-background="new 0 0 350 350" xml:space="preserve">
<g>
	<path fill="#25B9C5" d="M232.086,177.697c6.934,0.012,12.508-5.549,12.513-12.482c0.004-6.92-5.531-12.479-12.439-12.492
		c-6.962-0.014-12.523,5.506-12.539,12.447C219.605,172.11,225.152,177.685,232.086,177.697z"/>
	<path fill="#25B9C5" d="M196.406,167.36c-7.962-12.437-15.923-24.875-23.886-37.311c-1.812-2.829-4.727-3.535-7.669-1.91
		c-0.494,0.273-1.094,0.355-1.645,0.523c-0.049,0.015-0.101,0.018-0.164,0.029c0.091,0.083,0.165,0.151,0.255,0.233
		c-0.69,0.343-1.346,0.669-2.001,0.995c-10.45,5.213-20.9,10.424-31.348,15.639c-2.637,1.316-5.277,2.628-7.898,3.976
		c-1.827,0.94-2.89,2.457-2.991,4.524c-0.206,4.203,3.957,6.94,7.753,5.12c0.698-0.335,3.849-1.768,4.016-1.846
		c10.613-4.999,21.227-9.998,31.841-14.994c2.049-0.965,3.847-0.43,5.037,1.5c3.757,6.092,7.511,12.186,11.261,18.282
		c1.276,2.075,0.769,4.15-1.301,5.411c-9.674,5.889-19.348,11.78-29.022,17.67c-8.262,5.03-16.525,10.06-24.787,15.09
		c-0.162,0.099-0.315,0.212-0.536,0.363c4.743,1.149,9.439,1.853,14.186,2.194c6.317,0.454,12.623,0.28,18.919-0.406
		c5.615-0.612,11.156-1.635,16.56-3.255c5.589-1.676,11.118-3.547,16.666-5.357c4.767-1.556,9.552-3.034,14.49-3.968
		c0.238-0.045,0.53-0.294,0.627-0.521c1.38-3.229,1.254-6.418-0.458-9.482C203.638,178.653,198.432,170.525,196.406,167.36z"/>
	<path fill="#25B9C5" d="M175,22.867C90.979,22.867,22.867,90.979,22.867,175S90.979,327.133,175,327.133
		S327.133,259.021,327.133,175S259.021,22.867,175,22.867z M228.308,146.161c0.778-0.154,1.568-0.161,2.353-0.161
		c0.966,0,1.933,0,2.899,0c1.163,0,2.343,0.151,3.487,0.442c7.629,1.944,13.423,8.365,14.49,16.169
		c1.254,9.172-4.045,17.924-12.721,21.085c-11.278,4.108-23.672-2.807-25.967-14.575
		C210.781,158.523,217.726,148.248,228.308,146.161z M262.896,228.164c-1.091,1.802-3.084,2.275-4.935,1.245
		c-2.526-1.404-5.039-2.844-7.629-4.123c-8.479-4.184-17.331-7.283-26.672-8.889c-8.621-1.482-17.174-1.184-25.665,0.966
		c-5.649,1.43-11.126,3.397-16.639,5.252c-5.144,1.731-10.326,3.329-15.622,4.529c-9.958,2.257-20.04,3.143-30.235,2.626
		c-8.486-0.431-16.773-1.975-24.85-4.638c-6.987-2.304-13.625-5.352-19.819-9.326c-2.068-1.327-3.967-2.837-5.966-4.271
		c-0.889-0.638-1.865-1.424-1.865-2.501v-1.692c0-0.095,0.057-0.186,0.094-0.285c0.94-2.485,3.76-3.269,5.775-1.551
		c2.54,2.166,5.451,3.762,8.131,5.739c8.162,6.02,29.434,10.771,36.86,11.193c6.323,0.359,12.619,0.28,18.916-0.406
		c5.615-0.612,11.154-1.635,16.558-3.255c5.588-1.676,11.132-3.504,16.665-5.357c13.304-4.454,26.437-6.503,40.453-3.878
		c12.256,2.295,23.659,6.841,34.387,13.143c0.308,0.181,0.606,0.377,0.91,0.564C263.62,224.396,263.868,226.56,262.896,228.164z
		 M266.548,208.573c-1.092,1.802-3.084,2.275-4.935,1.245c-2.526-1.404-5.038-2.844-7.629-4.123
		c-8.479-4.184-17.331-7.283-26.672-8.889c-8.621-1.482-17.174-1.184-25.665,0.966c-5.65,1.43-11.126,3.397-16.639,5.252
		c-5.144,1.731-10.326,3.329-15.622,4.529c-9.958,2.257-20.04,3.143-30.234,2.626c-8.486-0.431-16.773-1.975-24.849-4.638
		c-6.987-2.304-13.626-5.352-19.819-9.326c-2.068-1.327-3.793-2.837-5.792-4.271C87.802,191.307,87,190.52,87,189.444
		c0-0.564,0-1.128,0-1.692c0-0.095-0.117-0.186-0.08-0.285c0.94-2.485,3.673-3.269,5.688-1.551c2.54,2.166,5.219,4.046,8.088,5.739
		c4.133,2.439,8.428,4.478,12.943,6.106c0.199,0.072,0.499-0.001,0.692-0.118c5.092-3.086,10.167-6.187,15.252-9.283
		c9.672-5.89,19.341-11.779,29.013-17.669c4.01-2.442,8.019-4.883,12.029-7.326c0.142-0.087,0.277-0.184,0.449-0.299
		c-2.66-4.315-5.309-8.611-7.979-12.942c-1.359,0.638-2.681,1.258-4.003,1.88c-9.559,4.502-19.072,9.108-28.702,13.454
		c-3.535,1.596-7.313,2.266-11.15,0.421c-4.667-2.244-7.673-6.99-7.396-12.166c0.183-3.423,1.823-6.136,4.337-8.375
		c0.641-0.571,1.247-1.185,1.913-1.725c0.447-0.363,0.947-0.677,1.462-0.935c13.822-6.902,27.647-13.797,41.481-20.677
		c0.526-0.261,1.134-0.358,1.705-0.527c0.125-0.037,0.259-0.073,0.383-0.116c1.29-0.441,2.579-1.358,3.868-1.358
		c0.639,0,1.279,0,1.918,0c0.678,0,1.365,0.264,2.032,0.441c3.233,0.855,5.746,2.726,7.547,5.536
		c5.719,8.922,11.43,17.855,17.144,26.78c4.751,7.421,9.5,14.848,14.256,22.266c0.434,0.677,0.75,1.378,0.788,2.198
		c0.011,0.247,0.158,0.496,0.269,0.73c0.906,1.907,1.781,3.846,1.882,5.979c0.075,1.583-0.099,3.177-0.164,4.818
		c0.217,0,0.582,0.018,0.945-0.003c5.55-0.314,11.045,0.184,16.493,1.204c12.256,2.295,23.659,6.841,34.387,13.143
		c0.308,0.181,0.606,0.377,0.91,0.564C267.272,204.804,267.52,206.968,266.548,208.573z"/>
</g>
</svg>
