<?xml version="1.0" encoding="utf-8"?>
<!-- Generator: Adobe Illustrator 17.0.0, SVG Export Plug-In . SVG Version: 6.00 Build 0)  -->
<!DOCTYPE svg PUBLIC "-//W3C//DTD SVG 1.1//EN" "http://www.w3.org/Graphics/SVG/1.1/DTD/svg11.dtd">
<svg version="1.1" id="Layer_1" xmlns="http://www.w3.org/2000/svg" xmlns:xlink="http://www.w3.org/1999/xlink" x="0px" y="0px"
	 width="350px" height="350px" viewBox="0 0 350 350" enable-background="new 0 0 350 350" xml:space="preserve">
<g>
	<path fill="#25B9C5" d="M115.321,122.869l-1.973,1.615l10.711,13.081c0.243,0.3,0.6,0.469,0.983,0.469
		c0.208,0,0.518-0.05,0.811-0.29c0.507-0.415,0.594-1.287,0.179-1.794L115.321,122.869z"/>
	<path fill="#25B9C5" d="M106.4,90.281c-3.46-4.219-8.548-6.738-13.612-6.738c-3.319,0-6.367,1.06-8.816,3.065
		c-6.189,5.058-6.579,15.671-0.836,22.712c4.883,5.963,11.776,6.607,14.513,6.607c0.786,0,1.299-0.05,1.438-0.065
		c2.918-0.477,10.579-3.622,11.46-12.459C111.003,98.839,109.492,94.056,106.4,90.281z"/>
	<path fill="#25B9C5" d="M109.441,117.713c-0.792,0.643-1.633,1.223-2.515,1.735l1.763,0.944l3.537-2.896l-0.581-1.901
		C110.968,116.358,110.232,117.065,109.441,117.713z"/>
	<path fill="#25B9C5" d="M234.472,119.307c-0.438-0.198-0.901-0.299-1.375-0.299c-1.313,0-2.512,0.772-3.054,1.968l-7.916,17.476
		l-1.27,0.516c-0.738,0.299-18.105,7.347-21.349,8.399c-3.185,1.031-6.471,1.412-10.277,1.852
		c-4.128,0.477-8.808,1.019-14.568,2.547l-0.058,0.015l-22.864,5.64l-2.559-1.91c-1.028-0.766-2.058-1.534-3.087-2.303l-4.036-3.014
		c-1.183-0.884-2.368-1.768-3.554-2.649l-0.637-0.471c-0.708-0.522-1.44-1.061-2.164-1.643c-0.747-0.599-3.136-2.493-4.774-2.251
		c-0.048,0.007-0.174,0.026-0.521,0.333c-0.035,0.031-0.073,0.067-0.109,0.104c-0.761,0.795-0.734,2.066,0.064,2.831l18.561,17.794
		c0.591,0.56,1.456,0.841,2.268,0.715l0.863-0.131l21.874-3.371l5.732,42.247l-13.572,56.769c-0.37,2.136,0.831,4.214,2.878,4.959
		c0.497,0.181,1.012,0.273,1.532,0.273c1.872,0,3.562-1.184,4.203-2.945l0.047-0.123l22.006-53.873l11.269,23.816l-5.562,28.077
		c-0.17,0.892,0.019,1.752,0.567,2.531c0.739,1.05,2.027,1.811,3.447,2.035c0.245,0.038,0.492,0.058,0.733,0.059
		c2.234,0,4.118-1.687,4.688-4.197l0.025-0.102l7.612-29.328c0.084-0.691,0.004-1.389-0.235-2.028l-0.27-0.72l-7.674-20.534
		l-7.203-52.445l23.093-10.333c0.862-0.39,1.519-1.103,1.841-2.004l7.161-20.11C236.819,121.855,236.041,120.018,234.472,119.307z"
		/>
	<path fill="#25B9C5" d="M175,22.867C90.979,22.867,22.867,90.979,22.867,175S90.979,327.133,175,327.133
		S327.133,259.021,327.133,175S259.021,22.867,175,22.867z M179.296,96.605c0.778-0.153,1.568,0.395,2.353-0.605
		c0.966,0,1.933,0,2.899,0c1.163,1,2.343,0.595,3.487,0.886c7.629,1.944,13.423,8.587,14.49,16.391
		c1.254,9.172-4.045,18.035-12.721,21.196c-11.278,4.108-23.671-2.974-25.967-14.742C161.769,109.133,168.714,98.692,179.296,96.605
		z M242.715,125.773l-7.165,20.121c-0.954,2.675-2.903,4.79-5.49,5.959l-18.409,8.237l6.4,46.591l7.675,20.535
		c0.669,1.789,0.865,3.737,0.57,5.636l-0.069,0.335l-7.649,29.47c-1.294,5.587-5.961,9.485-11.369,9.485
		c-0.597,0-1.204-0.048-1.803-0.142c-3.268-0.516-6.18-2.29-7.993-4.867c-1.611-2.291-2.211-5.057-1.69-7.79l5.127-25.879
		l-3.634-7.681l-16.09,39.389c-1.644,4.425-5.906,7.393-10.628,7.393c-1.324,0-2.63-0.231-3.882-0.688
		c-5.243-1.909-8.296-7.273-7.26-12.753l0.034-0.16l13.296-55.613l-4.62-34.05l-15.832,2.439c-0.471,0.073-0.959,0.11-1.442,0.11
		c-2.459,0-4.804-0.938-6.603-2.641l-18.576-17.808c-2.115-2.026-2.996-4.856-2.644-7.56c-1.415-0.412-2.688-1.232-3.646-2.402
		l-12.272-15.001l-8.222-4.409c-0.691,0.068-1.393,0.103-2.092,0.103c-6.878,0-13.727-3.351-18.322-8.963
		c-3.747-4.569-5.764-10.516-5.534-16.314c0.24-6.049,2.802-11.371,7.215-14.984c3.548-2.905,7.934-4.441,12.682-4.441
		c6.887,0,13.749,3.353,18.354,8.971c7.457,9.108,5.632,18.498,4.657,21.758l2.711,8.948l12.262,14.976
		c1.022,1.242,1.597,2.733,1.683,4.284c3.046,0.383,5.607,2.145,7.552,3.705c0.614,0.493,1.259,0.968,1.941,1.471l0.66,0.488
		c1.19,0.884,2.377,1.771,3.565,2.658l4.039,3.017c1.013,0.758,2.027,1.514,3.042,2.27l19.686-4.856
		c6.227-1.649,11.374-2.245,15.511-2.723c3.442-0.398,6.415-0.742,8.95-1.563c2.309-0.749,13.945-5.42,19.614-7.715l6.784-14.978
		c1.651-3.645,5.304-5.999,9.306-5.999c1.458,0,2.873,0.307,4.208,0.911C242.091,115.224,244.467,120.81,242.715,125.773z
		 M239.865,108.72c-5.112,0-9.271-4.159-9.271-9.271c0-5.112,4.159-9.271,9.271-9.271c5.112,0,9.271,4.159,9.271,9.271
		C249.136,104.561,244.977,108.72,239.865,108.72z"/>
	<path fill="#25B9C5" d="M183.074,128.585c6.934,0.012,12.508-5.549,12.513-12.482c0.004-6.92-5.531-12.479-12.439-12.492
		c-6.962-0.014-12.523,5.506-12.539,12.447C170.593,122.998,176.14,128.573,183.074,128.585z"/>
	<circle fill="#25B9C5" cx="239.865" cy="99.449" r="2.864"/>
</g>
</svg>
